<svg width="676" height="125" viewBox="0 0 676 125" fill="none" xmlns="http://www.w3.org/2000/svg">
<path d="M57.9992 80.2173C60.6784 80.6801 63.4252 80.5955 66.0826 79.9685C68.7401 79.3414 71.2562 78.1841 73.4872 76.5627C75.7183 74.9413 77.6207 72.8874 79.0858 70.5185C80.5509 68.1495 81.5499 65.5118 82.0259 62.756C82.5019 60.0002 82.4456 57.1802 81.8601 54.457C81.2746 51.7339 80.1714 49.1609 78.6135 46.885C77.0556 44.6091 75.0735 42.6749 72.7804 41.1927C70.4873 39.7105 67.928 38.7095 65.2488 38.2467C62.5696 37.7839 59.8228 37.8685 57.1654 38.4955C54.508 39.1226 51.9919 40.2799 49.7608 41.9013C47.5297 43.5227 45.6273 45.5765 44.1622 47.9455C42.6972 50.3145 41.6981 52.9522 41.2221 55.708C40.7461 58.4638 40.8024 61.2838 41.3879 64.007C41.9735 66.7301 43.0767 69.3031 44.6346 71.579C46.1925 73.8549 48.1746 75.7891 50.4677 77.2713C52.7608 78.7535 55.32 79.7545 57.9992 80.2173Z" stroke="#889993" stroke-width="2"/>
<path d="M536.729 80.1886C542.136 81.1421 547.712 79.8487 552.229 76.5928C556.745 73.3369 559.833 68.3852 560.813 62.8272C561.793 57.2691 560.585 51.56 557.454 46.9556C554.324 42.3512 549.527 39.2289 544.119 38.2754C538.712 37.3219 533.136 38.6153 528.619 41.8712C524.103 45.1271 521.015 50.0787 520.035 55.6368C519.055 61.1948 520.263 66.904 523.394 71.5084C526.524 76.1127 531.321 79.2351 536.729 80.1886Z" stroke="#889993" stroke-width="2"/>
<path d="M650.002 80.2014C652.681 80.6642 655.428 80.5801 658.085 79.9539C660.743 79.3276 663.258 78.1715 665.489 76.5515C667.72 74.9316 669.622 72.8795 671.087 70.5124C672.552 68.1454 673.55 65.5098 674.026 62.756C674.987 57.1946 673.758 51.4896 670.612 46.8962C667.465 42.3028 662.657 39.1972 657.246 38.2626C654.567 37.7998 651.82 37.8839 649.163 38.5102C646.506 39.1364 643.99 40.2926 641.759 41.9125C639.528 43.5325 637.626 45.5845 636.161 47.9516C634.697 50.3186 633.698 52.9543 633.222 55.708C632.262 61.2695 633.49 66.9744 636.637 71.5678C639.783 76.1612 644.591 79.2668 650.002 80.2014Z" stroke="#889993" stroke-width="2"/>
<path d="M106.92 76.816C99.4481 81.312 91.9441 76.224 89.1121 68.48C88.2801 66.208 87.8481 66.2827 87.8161 68.704C87.7734 71.6053 87.9494 74.7573 88.344 78.16C88.408 78.6827 88.6907 79.0133 89.1921 79.152C97.8321 81.424 112.52 81.536 114.408 69.648C116.84 54.416 96.8081 58.96 93.2881 49.216C91.5441 44.4 95.4961 40.56 100.152 40.432C106.744 40.256 109.24 43.984 111.832 49.184C112.952 51.424 113.405 51.3013 113.192 48.816L112.456 40.304C112.437 40.0747 112.347 39.8565 112.198 39.679C112.05 39.5015 111.849 39.3734 111.624 39.312C105.661 37.7973 100.541 37.92 96.2641 39.68C87.8001 43.184 86.5041 53.248 94.2161 58.496C98.5041 61.408 104.456 61.984 108.216 65.568C111.512 68.72 110.84 74.448 106.92 76.816Z" stroke="#889993" stroke-width="2"/>
<path d="M228.808 62.88C229.917 65.632 230.968 68.5173 231.96 71.536C232.92 74.48 232.339 76.5973 230.216 77.888C228.339 79.0293 228.499 79.6 230.696 79.6H242.2C244.28 79.6 244.392 79.12 242.536 78.16C240.669 77.2 239.341 75.696 238.552 73.648C234.168 62.3093 229.965 51.2266 225.944 40.4C225.709 39.76 225.325 39.2266 224.792 38.8C224.045 38.1813 223.261 38.2666 222.44 39.056C222.218 39.2778 222.044 39.5389 221.928 39.824C218.76 48.2933 215.507 56.976 212.168 65.872C210.781 69.5733 209.064 73.0186 207.016 76.208C206.632 76.8053 206.12 77.2587 205.48 77.568C204.893 77.8453 204.365 78.176 203.896 78.56C203.064 79.2213 203.181 79.5573 204.248 79.568C207.64 79.5893 211.176 79.6106 214.856 79.6319C218.195 79.6533 218.349 78.96 215.32 77.552C211.304 75.664 214.808 65.472 215.944 62.592C216.189 61.9733 216.648 61.664 217.32 61.664L227.112 61.712C227.944 61.712 228.509 62.1013 228.808 62.88Z" stroke="#889993" stroke-width="2"/>
<path d="M12.52 61.536L15.944 61.6C16.5947 61.6107 17.08 61.904 17.4 62.48C19.784 66.784 22.2 71.856 25.064 75.552C28.0933 79.4773 32.4667 80.816 38.184 79.568C39.6133 79.2587 39.6293 78.8907 38.232 78.464C31.24 76.304 25.88 67.504 22.584 61.392C22.2213 60.72 22.3866 60.24 23.08 59.952C34.28 55.312 33.48 39.984 20.872 39.04C16.616 38.72 10.36 38.6987 2.10398 38.976C1.82665 38.976 1.63998 39.1093 1.54398 39.376C1.47998 39.5787 1.52265 39.7653 1.67198 39.936C1.86398 40.1493 2.09331 40.3093 2.35998 40.416C4.85598 41.344 6.11999 43.264 6.15199 46.176C6.26932 55.936 6.21598 65.0507 5.99198 73.52C5.92798 75.984 4.47732 77.6533 1.63999 78.528C1.61865 78.528 1.60799 78.5387 1.60799 78.56C1.54399 78.7093 1.50132 78.864 1.47998 79.024C1.42665 79.408 1.59732 79.6 1.99198 79.6L15.816 79.584C15.944 79.584 16.0347 79.5253 16.088 79.408C16.1627 79.28 16.184 79.1467 16.152 79.008C16.0347 78.528 15.736 78.224 15.256 78.096C12.7493 77.392 11.48 75.536 11.448 72.528C11.4053 68.944 11.3893 65.6426 11.4 62.624C11.4107 61.888 11.784 61.5253 12.52 61.536Z" stroke="#889993" stroke-width="2"/>
<path d="M130.296 61.632L140.616 61.776C141.256 61.7867 141.693 62.0907 141.928 62.688C143.08 65.536 144.179 68.5653 145.224 71.776C146.12 74.5493 145.576 76.528 143.592 77.712C141.469 78.9814 141.645 79.616 144.12 79.616C147.939 79.6267 151.635 79.6 155.208 79.536C157.192 79.5147 157.32 79.008 155.592 78.016C153.693 76.9387 152.333 75.3174 151.512 73.152C147.352 62.1974 143.128 51.0347 138.84 39.664C138.701 39.28 138.44 39.0133 138.056 38.864C137.373 38.576 136.669 38.5654 135.944 38.832C135.517 39.0027 135.229 39.3014 135.08 39.728C131.432 50.0107 127.48 60.4534 123.224 71.056C121.891 74.3734 119.864 76.896 117.144 78.624C116.248 79.2 116.333 79.504 117.4 79.536C121.091 79.6427 124.909 79.6534 128.856 79.568C131.384 79.504 131.485 78.9707 129.16 77.968C124.152 75.792 127.944 66 129.16 62.448C129.341 61.904 129.72 61.632 130.296 61.632Z" stroke="#889993" stroke-width="2"/>
<path d="M165.288 46.624C165.267 45.3973 165.651 45.248 166.44 46.176L193.992 78.64C196.467 81.5627 197.688 81.1093 197.656 77.28C197.592 68.5013 197.699 59.4133 197.976 50.016C198.088 46.016 197.912 42.688 201.336 40.256C202.52 39.4133 202.381 38.976 200.92 38.944C196.675 38.8587 192.499 38.8693 188.392 38.976C188.2 38.976 188.061 39.0667 187.976 39.248C187.933 39.3427 187.912 39.4458 187.913 39.5498C187.915 39.6537 187.94 39.7561 187.985 39.8494C188.031 39.9427 188.097 40.0247 188.179 40.0895C188.26 40.1543 188.355 40.2002 188.456 40.224C194.424 41.488 195.208 48.624 195.352 53.84C195.501 59.6 195.693 65.1467 195.928 70.48C195.981 71.792 195.587 71.9467 194.744 70.944L168.376 39.616C167.992 39.1467 167.501 38.912 166.904 38.912L160.6 38.88C160.291 38.88 160.077 39.0187 159.96 39.296C159.757 39.744 160.141 40.1813 161.112 40.608C161.155 40.6187 161.197 40.6293 161.24 40.64C162.797 41.1307 163.581 42.1173 163.592 43.6C163.667 51.12 163.597 59.12 163.384 67.6C163.299 70.864 162.867 73.6853 162.088 76.064C161.896 76.672 161.523 77.1414 160.968 77.472C160.424 77.8027 159.933 78.1813 159.496 78.608C158.835 79.2693 158.973 79.6 159.912 79.6L172.888 79.584C173.016 79.584 173.128 79.552 173.224 79.488C173.437 79.36 173.539 79.1947 173.528 78.992C173.507 78.5867 173.293 78.3307 172.888 78.224C166.952 76.704 165.848 70.24 165.832 64.912C165.832 58.832 165.4 52.912 165.288 46.624Z" stroke="#889993" stroke-width="2"/>
<path d="M453.736 61.632L463.832 61.776C464.429 61.776 464.845 62.048 465.08 62.592C466.52 65.888 467.709 69.3227 468.648 72.896C469.203 75.0187 468.68 76.5387 467.08 77.456C464.563 78.9067 464.755 79.632 467.656 79.632C471.219 79.6427 474.787 79.6107 478.36 79.536C480.579 79.4933 480.696 78.9653 478.712 77.952C476.931 77.056 475.613 75.488 474.76 73.248C470.419 61.8667 466.184 50.6774 462.056 39.68C461.907 39.2854 461.635 39.008 461.24 38.848C460.547 38.5813 459.837 38.5813 459.112 38.848C458.927 38.9181 458.759 39.0274 458.621 39.1684C458.482 39.3094 458.377 39.4785 458.312 39.664C454.611 50.0107 450.68 60.4 446.52 70.832C445.144 74.288 443.085 76.8907 440.344 78.64C439.448 79.216 439.533 79.5147 440.6 79.536C444.867 79.6427 449.128 79.648 453.384 79.552C453.587 79.5413 453.731 79.44 453.816 79.248C453.955 78.9173 453.875 78.6613 453.576 78.48C453.31 78.3205 453.031 78.1917 452.744 78.096C447.368 76.432 450.792 66.768 452.328 62.592C452.431 62.3079 452.622 62.0629 452.874 61.8909C453.126 61.7189 453.428 61.6284 453.736 61.632Z" stroke="#889993" stroke-width="2"/>
<path d="M505.144 57.36C510.552 55.008 513.256 49.456 510.248 44.16C508.2 40.512 503.592 39.104 499.608 38.992C494.157 38.832 488.675 38.8267 483.16 38.976C483.049 38.9805 482.941 39.018 482.851 39.0838C482.761 39.1497 482.693 39.2408 482.656 39.3456C482.618 39.4503 482.612 39.564 482.639 39.672C482.666 39.78 482.725 39.8775 482.808 39.952C483.352 40.4107 483.96 40.752 484.632 40.976C485.165 41.1467 485.597 41.456 485.928 41.904C486.739 42.9813 487.16 44.2453 487.192 45.696C487.363 54.6347 487.352 63.744 487.16 73.024C487.107 75.616 485.869 77.3173 483.448 78.128C483.096 78.2453 482.835 78.4693 482.664 78.8C482.536 79.0667 482.563 79.2533 482.744 79.36C482.861 79.4347 482.984 79.472 483.112 79.472C489.48 79.7174 495.619 79.7174 501.528 79.472C510.6 79.088 518.472 70.576 512.024 62.128C510.408 60 507.704 59.248 505.208 58.496C504.152 58.176 504.131 57.7973 505.144 57.36Z" stroke="#889993" stroke-width="2"/>
<path d="M602.584 71.024C602.573 71.728 602.339 71.808 601.88 71.264C593.891 61.8666 585.971 52.5013 578.12 43.168C577.256 42.1333 576.483 41.008 575.8 39.792C575.512 39.2586 575.059 38.9707 574.44 38.928C571.795 38.7787 569.453 38.832 567.416 39.088C565.976 39.2693 565.933 39.6107 567.288 40.112C569.453 40.9227 570.525 42.4053 570.504 44.56C570.451 51.6533 570.328 58.8853 570.136 66.256C570.024 70.64 570.504 75.776 566.344 78.688C565.565 79.232 565.651 79.5146 566.6 79.536C570.781 79.632 575.213 79.6427 579.896 79.568C580.045 79.5573 580.173 79.4986 580.28 79.392C580.408 79.264 580.424 79.088 580.328 78.864C580.243 78.6293 580.083 78.4747 579.848 78.4C575.656 76.9387 573.389 73.9307 573.048 69.376C572.493 61.952 572.205 54.144 572.184 45.952C572.182 45.8747 572.204 45.7987 572.247 45.7346C572.29 45.6706 572.353 45.6218 572.425 45.5953C572.498 45.5687 572.577 45.5657 572.652 45.5866C572.726 45.6076 572.792 45.6515 572.84 45.712L600.6 78.432C603.213 81.504 604.504 81.024 604.472 76.992C604.408 67.648 604.792 57.744 604.808 47.472C604.819 44.0693 605.949 41.6533 608.2 40.224C609.565 39.3493 609.437 38.912 607.816 38.912L595.448 38.896C595.325 38.8956 595.211 38.9355 595.128 39.008C594.947 39.1573 594.856 39.328 594.856 39.52C594.856 39.8293 595.005 40.0267 595.304 40.112C598.995 41.2427 601.069 43.9573 601.528 48.256C602.339 55.808 602.691 63.3973 602.584 71.024Z" stroke="#889993" stroke-width="2"/>
<path d="M613.528 86.096C612.013 86.0107 610.536 85.5573 609.096 84.736C607.816 84 606.861 84.304 606.232 85.648L605.928 86.272C605.79 86.5676 605.715 86.8884 605.707 87.2144C605.699 87.5404 605.759 87.8645 605.882 88.1664C606.005 88.4683 606.189 88.7415 606.423 88.9689C606.657 89.1964 606.935 89.3731 607.24 89.488C608.915 90.1173 610.563 90.2347 612.184 89.84C620.12 87.92 622.6 80.784 622.6 73.328C622.621 64.176 622.648 55.0293 622.68 45.888C622.691 42.976 624.029 41.1253 626.696 40.336C626.861 40.2847 627.002 40.1771 627.096 40.032C627.373 39.648 627.389 39.3653 627.144 39.184C626.899 39.0027 626.627 38.912 626.328 38.912C621.912 38.9013 617.645 38.8907 613.528 38.88C613.208 38.88 612.963 39.0133 612.792 39.28C612.675 39.4827 612.68 39.68 612.808 39.872C613 40.1493 613.256 40.3467 613.576 40.464C616.115 41.3387 617.389 43.1147 617.4 45.792C617.421 56.6613 617.416 67.3867 617.384 77.968C617.384 80.8587 616.739 83.2533 615.448 85.152C615.239 85.4637 614.951 85.7149 614.614 85.8806C614.277 86.0463 613.903 86.1205 613.528 86.096Z" stroke="#889993" stroke-width="2"/>
<path d="M249 115.296C249 115.193 248.98 115.091 248.94 114.996C248.901 114.901 248.843 114.814 248.77 114.742C248.698 114.669 248.611 114.611 248.516 114.572C248.421 114.532 248.319 114.512 248.216 114.512H34.68C34.577 114.512 34.4751 114.532 34.38 114.572C34.2848 114.611 34.1984 114.669 34.1256 114.742C34.0528 114.814 33.9951 114.901 33.9557 114.996C33.9163 115.091 33.896 115.193 33.896 115.296V115.456C33.896 115.664 33.9786 115.863 34.1256 116.01C34.2727 116.157 34.4721 116.24 34.68 116.24H248.216C248.424 116.24 248.623 116.157 248.77 116.01C248.917 115.863 249 115.664 249 115.456V115.296Z" stroke="#889993" stroke-width="2"/>
<path d="M649.848 115.36C649.848 115.135 649.759 114.919 649.6 114.76C649.44 114.601 649.225 114.512 649 114.512H435.56C435.335 114.512 435.119 114.601 434.96 114.76C434.801 114.919 434.712 115.135 434.712 115.36V115.392C434.712 115.617 434.801 115.833 434.96 115.992C435.119 116.151 435.335 116.24 435.56 116.24H649C649.225 116.24 649.44 116.151 649.6 115.992C649.759 115.833 649.848 115.617 649.848 115.392V115.36Z" stroke="#889993" stroke-width="2"/>
<path d="M63.7329 78.956C67.5676 78.5394 71.0197 76.0635 73.3298 72.073C75.6398 68.0824 76.6186 62.9042 76.0508 57.6773C75.483 52.4504 73.4151 47.6031 70.302 44.2017C67.1889 40.8003 63.2857 39.1235 59.451 39.54C55.6162 39.9566 52.1641 42.4325 49.8541 46.423C47.544 50.4136 46.5652 55.5919 47.133 60.8188C47.7009 66.0456 49.7688 70.8929 52.8819 74.2943C55.9949 77.6957 59.8982 79.3726 63.7329 78.956Z" stroke="#889993" stroke-width="2"/>
<path d="M542.483 78.9597C546.318 78.5498 549.774 76.08 552.091 72.0935C554.408 68.107 555.396 62.9305 554.838 57.7026C554.279 52.4747 552.219 47.6238 549.112 44.217C546.005 40.8102 542.105 39.1265 538.269 39.5364C534.434 39.9463 530.978 42.4161 528.661 46.4026C526.344 50.3891 525.356 55.5656 525.914 60.7935C526.473 66.0213 528.533 70.8723 531.64 74.2791C534.747 77.6859 538.647 79.3696 542.483 78.9597Z" stroke="#889993" stroke-width="2"/>
<path d="M655.733 78.956C659.568 78.5394 663.02 76.0635 665.33 72.073C667.64 68.0824 668.619 62.9042 668.051 57.6773C667.483 52.4504 665.415 47.6031 662.302 44.2017C659.189 40.8003 655.286 39.1235 651.451 39.54C647.616 39.9566 644.164 42.4325 641.854 46.423C639.544 50.4136 638.565 55.5919 639.133 60.8188C639.701 66.0456 641.769 70.8929 644.882 74.2943C647.995 77.6957 651.898 79.3726 655.733 78.956Z" stroke="#889993" stroke-width="2"/>
<path d="M216.936 59.392C216.911 59.4718 216.905 59.5566 216.918 59.6392C216.932 59.7219 216.966 59.8 217.016 59.8673C217.066 59.9345 217.131 59.9888 217.206 60.0258C217.281 60.0628 217.364 60.0814 217.448 60.08L226.968 59.952C227.052 59.9517 227.135 59.9312 227.21 59.8923C227.285 59.8533 227.349 59.797 227.398 59.7281C227.446 59.6591 227.478 59.5796 227.489 59.4961C227.501 59.4125 227.492 59.3275 227.464 59.248L222.504 45.728C222.465 45.6268 222.396 45.54 222.307 45.4794C222.217 45.4187 222.111 45.3871 222.002 45.3889C221.894 45.3906 221.789 45.4256 221.701 45.4891C221.613 45.5527 221.547 45.6416 221.512 45.744L216.936 59.392Z" stroke="#889993" stroke-width="2"/>
<path d="M11.3359 41.984L11.4319 58.272C11.4319 58.6879 11.5971 59.0867 11.8912 59.3808C12.1852 59.6748 12.5841 59.84 12.9999 59.84L16.2319 59.824C17.4381 59.8178 18.6311 59.5712 19.743 59.0982C20.8549 58.6253 21.8638 57.9353 22.7122 57.0676C23.5606 56.1999 24.2317 55.1716 24.6874 54.0413C25.1431 52.911 25.3743 51.7009 25.3679 50.48V49.648C25.3551 47.1827 24.3752 44.8233 22.6439 43.089C20.9126 41.3547 18.5716 40.3874 16.1359 40.4L12.9039 40.416C12.4881 40.416 12.0893 40.5812 11.7952 40.8753C11.5011 41.1693 11.3359 41.5682 11.3359 41.984Z" stroke="#889993" stroke-width="2"/>
<path d="M130.168 59.376C130.143 59.458 130.137 59.5448 130.152 59.6294C130.167 59.7139 130.201 59.7938 130.253 59.8624C130.304 59.9311 130.371 59.9866 130.448 60.0244C130.525 60.0622 130.61 60.0813 130.696 60.08L140.152 59.936C140.239 59.9339 140.324 59.9111 140.4 59.8694C140.476 59.8276 140.541 59.7682 140.59 59.6962C140.639 59.6241 140.669 59.5414 140.679 59.4551C140.689 59.3688 140.679 59.2813 140.648 59.2L135.704 45.696C135.664 45.5911 135.593 45.501 135.501 45.4379C135.408 45.3748 135.298 45.3419 135.186 45.3437C135.074 45.3454 134.965 45.3817 134.875 45.4477C134.784 45.5136 134.716 45.6059 134.68 45.712L130.168 59.376Z" stroke="#889993" stroke-width="2"/>
<path d="M453.368 59.376C453.343 59.458 453.337 59.5448 453.352 59.6294C453.367 59.7139 453.401 59.7938 453.453 59.8624C453.504 59.9311 453.571 59.9866 453.648 60.0244C453.725 60.0622 453.81 60.0813 453.896 60.08L463.352 59.936C463.439 59.9339 463.524 59.9111 463.6 59.8694C463.677 59.8276 463.742 59.7682 463.79 59.6962C463.839 59.6241 463.869 59.5414 463.879 59.4551C463.89 59.3688 463.879 59.2813 463.848 59.2L458.904 45.696C458.865 45.5911 458.794 45.501 458.701 45.4379C458.608 45.3748 458.498 45.3419 458.386 45.3437C458.274 45.3454 458.166 45.3817 458.075 45.4477C457.984 45.5136 457.916 45.6059 457.88 45.712L453.368 59.376Z" stroke="#889993" stroke-width="2"/>
<path d="M492.424 41.872L492.488 56.208C492.488 56.5263 492.614 56.8315 492.84 57.0565C493.065 57.2816 493.37 57.408 493.688 57.408L497.864 57.392C499.983 57.3833 502.012 56.5614 503.505 55.1066C504.999 53.6518 505.836 51.683 505.832 49.632V48.384C505.83 47.3656 505.621 46.3577 505.216 45.4179C504.811 44.478 504.218 43.6247 503.472 42.9069C502.726 42.1891 501.841 41.6208 500.868 41.2345C499.895 40.8483 498.852 40.6517 497.8 40.656L493.624 40.672C493.306 40.672 493.001 40.7984 492.776 41.0235C492.55 41.2485 492.424 41.5537 492.424 41.872Z" stroke="#889993" stroke-width="2"/>
<path d="M492.52 60.176L492.392 76.88C492.39 77.02 492.416 77.159 492.468 77.289C492.52 77.419 492.597 77.5373 492.696 77.637C492.794 77.7368 492.911 77.816 493.04 77.8701C493.169 77.9242 493.308 77.952 493.448 77.952L499 77.984C501.522 78.0018 503.949 77.0614 505.746 75.3695C507.543 73.6775 508.563 71.3723 508.584 68.96V68.352C508.594 67.1553 508.358 65.9683 507.888 64.8589C507.418 63.7494 506.724 62.7393 505.846 61.8864C504.968 61.0334 503.922 60.3542 502.769 59.8878C501.617 59.4213 500.379 59.1767 499.128 59.168L493.576 59.136C493.299 59.136 493.032 59.245 492.835 59.4396C492.637 59.6342 492.524 59.8987 492.52 60.176Z" stroke="#889993" stroke-width="2"/>
<path d="M283.736 19.872C286.088 10.736 290.36 4.35197 300.008 1.56797C301.48 1.14131 301.677 1.47199 300.6 2.55999C298.701 4.47999 296.995 6.59198 295.48 8.89598C292.589 13.2906 288.893 17.0986 284.392 20.32C283.773 20.768 283.555 20.6186 283.736 19.872Z" fill="#657ED4"/>
<path d="M283.252 19.7473L283.252 19.7473C284.438 15.1394 286.119 11.1817 288.752 8.01815C291.39 4.84714 294.96 2.5043 299.869 1.08766L283.252 19.7473ZM283.252 19.7473L283.25 19.754M283.252 19.7473L283.25 19.754M283.25 19.754C283.2 19.9586 283.168 20.1605 283.175 20.3408C283.182 20.5028 283.228 20.7835 283.482 20.9569C283.738 21.1316 284.017 21.0698 284.171 21.0149C284.341 20.9544 284.515 20.8483 284.684 20.7257C289.232 17.4707 292.972 13.619 295.898 9.17075L295.898 9.17064M283.25 19.754L295.898 9.17064M295.898 9.17064C297.395 6.89378 299.08 4.80773 300.955 2.9118M295.898 9.17064L300.955 2.9118M300.955 2.9118C301.233 2.63129 301.454 2.375 301.594 2.14955M300.955 2.9118L301.594 2.14955M301.594 2.14955C301.663 2.03762 301.729 1.90828 301.761 1.7691M301.594 2.14955L301.761 1.7691M301.761 1.7691C301.794 1.6274 301.802 1.4293 301.689 1.23976M301.761 1.7691L301.689 1.23976M301.689 1.23976C301.576 1.05042 301.398 0.963592 301.258 0.925243M301.689 1.23976L301.258 0.925243M301.258 0.925243C301.121 0.887531 300.976 0.883235 300.844 0.890801M301.258 0.925243L300.844 0.890801M300.844 0.890801C300.579 0.906033 300.249 0.977669 299.869 1.08757L300.844 0.890801Z" stroke="#657ED4" stroke-opacity="0.37"/>
<path d="M398.632 18.976C398.877 20.064 398.584 20.2293 397.752 19.472C394.264 16.288 390.376 13.328 387.72 9.51999C385.885 6.88533 383.843 4.35199 381.592 1.91999C380.909 1.17333 381.053 0.944005 382.024 1.23201C391.101 3.87734 396.637 9.792 398.632 18.976Z" fill="#657ED4"/>
<path d="M397.415 19.8413L397.415 19.8418C397.635 20.0414 397.846 20.2062 398.042 20.3095C398.205 20.3952 398.528 20.5285 398.842 20.3516C399.16 20.172 399.208 19.8226 399.215 19.6381C399.223 19.4174 399.185 19.1542 399.12 18.8679C398.107 14.2029 396.188 10.3431 393.349 7.31033C390.51 4.27752 386.775 2.09585 382.165 0.752308C381.91 0.676789 381.675 0.624115 381.477 0.613694C381.379 0.608497 381.261 0.61199 381.144 0.645417C381.023 0.679874 380.868 0.757231 380.765 0.92209C380.661 1.08708 380.659 1.2602 380.68 1.38429C380.701 1.50454 380.749 1.61205 380.797 1.69859C380.893 1.87239 381.044 2.06109 381.223 2.25738L381.223 2.25738L381.225 2.2596C383.461 4.67521 385.489 7.19059 387.31 9.80572L387.31 9.80603C389.395 12.7949 392.236 15.2805 395.007 17.7048C395.823 18.4185 396.632 19.1269 397.415 19.8413Z" stroke="#657ED4" stroke-opacity="0.37"/>
<path d="M401.768 24C400.76 20.16 399.256 12.336 396.68 9.76C394.525 7.59466 394.797 7.23198 397.496 8.67198C407.72 14.128 405.704 24.336 405.992 34.112C406.013 34.976 405.731 35.088 405.144 34.448C401.731 30.6826 398.04 27.2053 394.072 24.016C391 21.552 388.835 18.1387 387.576 13.776C387.288 12.7733 387.496 12.6613 388.2 13.44C392.072 17.712 396.84 20.624 401.048 24.448C401.784 25.12 402.024 24.9707 401.768 24Z" fill="#657ED4"/>
<path d="M400.728 21.8855C400.91 22.6345 401.078 23.3307 401.237 23.9446C399.6 22.4698 397.88 21.1253 396.179 19.7953C395.72 19.4365 395.262 19.0787 394.808 18.7197C392.61 16.9831 390.478 15.2081 388.571 13.1043C388.388 12.9021 388.216 12.7331 388.06 12.6193C387.984 12.5634 387.887 12.5025 387.775 12.4654C387.666 12.429 387.475 12.3944 387.279 12.4997C387.081 12.6061 387.005 12.7875 386.976 12.902C386.948 13.0171 386.948 13.1327 386.954 13.2268C386.968 13.4186 387.021 13.6534 387.096 13.914L387.096 13.9146C388.378 18.3605 390.595 21.8677 393.759 24.4057C397.706 27.5786 401.378 31.0379 404.774 34.7838L404.776 34.7858C404.935 34.9598 405.1 35.1125 405.268 35.2143C405.421 35.3076 405.689 35.4243 405.98 35.3088C406.273 35.1927 406.387 34.9227 406.434 34.7483C406.485 34.5588 406.498 34.3347 406.492 34.0997L406.492 34.0973C406.446 32.554 406.459 31.0112 406.471 29.4672C406.478 28.5712 406.485 27.6748 406.481 26.7777C406.47 24.3529 406.375 21.9547 405.962 19.6826C405.13 15.1078 403.004 11.0446 397.732 8.23086L397.732 8.23085C397.051 7.86797 396.503 7.60704 396.098 7.45994C395.898 7.38771 395.705 7.33213 395.534 7.31498C395.407 7.30231 395.076 7.28677 394.868 7.56399C394.659 7.84264 394.769 8.15702 394.817 8.27475C394.883 8.43394 394.992 8.6031 395.118 8.77264C395.375 9.11802 395.783 9.56701 396.326 10.1127L396.327 10.1135C396.907 10.6941 397.454 11.6015 397.964 12.7366C398.47 13.8643 398.924 15.1807 399.333 16.5491C399.879 18.3765 400.334 20.2561 400.728 21.8855Z" stroke="#657ED4" stroke-opacity="0.37"/>
<path d="M280.872 26.496C281.704 25.2 282.44 23.616 283.768 22.752C287.565 20.2986 290.92 17.5626 293.832 14.544C294.461 13.8933 294.675 14.0106 294.472 14.896C292.936 21.44 287 26.624 281.784 30.672C280.067 32.0053 278.669 33.648 277.592 35.6C277.155 36.3786 276.925 36.32 276.904 35.424C276.787 31.7973 276.685 28.1493 276.6 24.48C276.44 17.984 279.864 10.8 286.312 8.57598C287.176 8.27731 287.325 8.49064 286.76 9.21597C282.68 14.384 281.96 20.032 280.376 26.288C280.109 27.3333 280.275 27.4026 280.872 26.496Z" fill="#657ED4"/>
<path d="M286.149 8.10331C279.43 10.421 275.937 17.8568 276.1 24.4919C276.186 28.162 276.287 31.8107 276.404 35.4381C276.41 35.674 276.429 35.8908 276.475 36.066C276.498 36.1533 276.535 36.2579 276.599 36.3546C276.665 36.4542 276.782 36.5768 276.968 36.6244C277.155 36.6722 277.317 36.6205 277.424 36.5635C277.527 36.5083 277.609 36.4329 277.67 36.3667C277.793 36.2334 277.912 36.0507 278.028 35.8448L278.03 35.8416C279.075 33.9476 280.428 32.3576 282.091 31.067C284.705 29.0384 287.522 26.7076 289.882 24.0521C292.241 21.397 294.165 18.3922 294.959 15.0102L294.959 15.0075C295.013 14.7735 295.048 14.5549 295.046 14.3707C295.045 14.2789 295.035 14.1676 294.996 14.0574C294.956 13.9437 294.872 13.7976 294.705 13.7059C294.538 13.6138 294.369 13.6214 294.25 13.6493C294.135 13.6762 294.036 13.7284 293.959 13.7775C293.803 13.876 293.639 14.0243 293.473 14.1964L293.472 14.1968C290.589 17.1859 287.264 19.8979 283.497 22.332L283.495 22.3329C282.751 22.817 282.191 23.4907 281.721 24.1803C281.543 24.4415 281.375 24.7091 281.214 24.9731C281.358 24.3725 281.497 23.7793 281.634 23.1934C282.803 18.1909 283.85 13.709 287.153 9.52579L287.154 9.52334C287.304 9.33087 287.431 9.14363 287.507 8.97056C287.565 8.84069 287.686 8.51748 287.482 8.22524C287.275 7.92944 286.926 7.93779 286.784 7.94974C286.596 7.96561 286.378 8.02407 286.149 8.10331ZM286.149 8.10331L286.312 8.57598L286.149 8.10342C286.149 8.10338 286.149 8.10334 286.149 8.10331Z" stroke="#657ED4" stroke-opacity="0.37"/>
<mask id="path-32-outside-1_19_139" maskUnits="userSpaceOnUse" x="306.054" y="9.86768" width="72" height="78" fill="black">
<rect fill="white" x="306.054" y="9.86768" width="72" height="78"/>
<path d="M340.664 22.72C340.6 21.12 339.885 19.8027 338.52 18.768C337.496 17.9893 337.224 16.9973 337.704 15.792C338.323 14.2347 339.427 12.7307 341.016 11.28C341.645 10.7147 342.264 10.7307 342.872 11.328C346.008 14.448 348.168 17.616 343.416 20.928C342.605 21.4827 342.515 22.1387 343.144 22.896L343.448 23.248C343.563 23.3867 343.729 23.4745 343.908 23.4925C344.088 23.5104 344.267 23.4571 344.408 23.344C352.808 16.48 358.088 27.616 365.928 27.12C366.664 27.0667 367.027 26.672 367.016 25.936L367 23.648C367 23.5078 367.032 23.3694 367.094 23.2437C367.157 23.118 367.247 23.0083 367.358 22.9231C367.47 22.838 367.599 22.7797 367.737 22.7528C367.875 22.7259 368.017 22.7311 368.152 22.768L368.728 22.928C369.061 23.0174 369.359 23.2062 369.582 23.4692C369.805 23.7322 369.942 24.0569 369.976 24.4C370.285 27.6107 368.84 29.7707 365.64 30.88C364.84 31.1573 364.611 31.6853 364.952 32.464L376.088 57.424C376.312 57.936 376.307 58.4533 376.072 58.976C373.832 63.856 371.544 68.128 365.592 69.024C357.987 70.1653 352.472 66.848 349.048 59.072C348.813 58.5173 348.84 57.9787 349.128 57.456C353.309 49.8827 356.925 41.248 359.976 31.552C360.179 30.912 360.04 30.3573 359.56 29.888C353.976 24.416 347.64 26.64 345.144 33.328C344.952 33.8293 345.032 34.288 345.384 34.704C346.728 36.3253 346.739 38.0053 345.416 39.744C345.064 40.2027 344.963 40.7093 345.112 41.264C345.496 42.736 345.928 43.616 345.704 45.248C344.819 51.7013 344.957 57.008 346.12 61.168C347.368 65.648 351.016 68.24 349.304 73.44C349.217 73.7064 349.204 73.9913 349.266 74.2646C349.328 74.5378 349.463 74.7892 349.656 74.992L356.072 81.552C356.168 81.6492 356.238 81.7683 356.277 81.8993C356.316 82.0302 356.322 82.1691 356.296 82.3041C356.269 82.4391 356.21 82.5663 356.124 82.675C356.037 82.7836 355.926 82.8703 355.8 82.928C346.627 87.12 337.283 87.0293 327.768 82.656C327.245 82.4107 327.187 82.0853 327.592 81.68L334.088 75.104C334.298 74.8882 334.45 74.6232 334.529 74.3346C334.607 74.046 334.61 73.7435 334.536 73.456L333.928 71.072C333.8 70.5387 333.848 70.0267 334.072 69.536C337.272 62.544 339.672 57.168 338.488 49.2C338.072 46.416 338.141 43.6853 338.696 41.008C338.737 40.8009 338.733 40.5873 338.686 40.3807C338.64 40.1742 338.55 39.9791 338.424 39.808C337.101 37.9733 337.096 36.192 338.408 34.464C338.76 34.0053 338.824 33.5093 338.6 32.976C335.56 25.888 329.272 24.672 323.912 30.464C323.571 30.8373 323.507 31.2533 323.72 31.712C324.296 32.9493 324.792 34.2347 325.208 35.568C327.779 43.8453 330.989 51.264 334.84 57.824C335.128 58.304 335.123 58.7787 334.824 59.248C332.829 62.4907 331.427 64.4747 330.616 65.2C326.072 69.3493 321.096 70.4107 315.688 68.384C311.192 66.688 309.8 62.512 307.352 58.88C306.989 58.3467 306.957 57.8027 307.256 57.248C311.469 49.2693 315.24 41.1093 318.568 32.768C318.92 31.8827 318.664 31.2427 317.8 30.848C315.24 29.68 312.344 26.144 314.408 23.328C314.578 23.0992 314.815 22.9287 315.085 22.8401C315.356 22.7516 315.648 22.7493 315.92 22.8336C316.192 22.9179 316.432 23.0846 316.605 23.3107C316.778 23.5369 316.877 23.8112 316.888 24.096L316.92 24.992C316.93 25.3817 317.037 25.7627 317.232 26.1003C317.427 26.438 317.703 26.7215 318.035 26.9251C318.368 27.1287 318.746 27.2459 319.135 27.2659C319.524 27.286 319.912 27.2083 320.264 27.04L332.536 21.2C332.767 21.0949 333.014 21.0456 333.256 21.056C335.581 21.2267 337.704 21.9733 339.624 23.296C340.36 23.808 340.707 23.616 340.664 22.72ZM352.2 57.072C352.169 57.1524 352.157 57.2392 352.167 57.3249C352.177 57.4106 352.208 57.4925 352.257 57.5636C352.306 57.6346 352.372 57.6926 352.448 57.7324C352.525 57.7722 352.61 57.7927 352.696 57.792L373.32 57.296C373.409 57.2963 373.497 57.2741 373.575 57.2315C373.653 57.1888 373.719 57.1271 373.767 57.0521C373.815 56.977 373.843 56.8911 373.849 56.8023C373.855 56.7135 373.838 56.6246 373.8 56.544L362.872 31.856C362.829 31.7606 362.759 31.6801 362.67 31.6248C362.581 31.5694 362.478 31.5417 362.373 31.5451C362.269 31.5486 362.168 31.583 362.083 31.644C361.998 31.7051 361.933 31.79 361.896 31.888L352.2 57.072ZM318.44 37.552C315.688 44.112 312.819 50.4053 309.832 56.432C309.792 56.5143 309.773 56.6055 309.777 56.6972C309.781 56.7888 309.808 56.8779 309.856 56.9561C309.904 57.0343 309.971 57.0992 310.051 57.1446C310.13 57.1901 310.22 57.2146 310.312 57.216L331.416 57.744C332.045 57.7547 332.227 57.472 331.96 56.896C328.397 49.2693 325.293 41.28 322.648 32.928C322.509 32.4907 322.275 32.112 321.944 31.792C321.581 31.4613 321.176 31.3653 320.728 31.504C320.28 31.6533 320.013 31.9573 319.928 32.416C319.608 34.2187 319.112 35.9307 318.44 37.552Z"/>
</mask>
<path d="M340.664 22.72C340.6 21.12 339.885 19.8027 338.52 18.768C337.496 17.9893 337.224 16.9973 337.704 15.792C338.323 14.2347 339.427 12.7307 341.016 11.28C341.645 10.7147 342.264 10.7307 342.872 11.328C346.008 14.448 348.168 17.616 343.416 20.928C342.605 21.4827 342.515 22.1387 343.144 22.896L343.448 23.248C343.563 23.3867 343.729 23.4745 343.908 23.4925C344.088 23.5104 344.267 23.4571 344.408 23.344C352.808 16.48 358.088 27.616 365.928 27.12C366.664 27.0667 367.027 26.672 367.016 25.936L367 23.648C367 23.5078 367.032 23.3694 367.094 23.2437C367.157 23.118 367.247 23.0083 367.358 22.9231C367.47 22.838 367.599 22.7797 367.737 22.7528C367.875 22.7259 368.017 22.7311 368.152 22.768L368.728 22.928C369.061 23.0174 369.359 23.2062 369.582 23.4692C369.805 23.7322 369.942 24.0569 369.976 24.4C370.285 27.6107 368.84 29.7707 365.64 30.88C364.84 31.1573 364.611 31.6853 364.952 32.464L376.088 57.424C376.312 57.936 376.307 58.4533 376.072 58.976C373.832 63.856 371.544 68.128 365.592 69.024C357.987 70.1653 352.472 66.848 349.048 59.072C348.813 58.5173 348.84 57.9787 349.128 57.456C353.309 49.8827 356.925 41.248 359.976 31.552C360.179 30.912 360.04 30.3573 359.56 29.888C353.976 24.416 347.64 26.64 345.144 33.328C344.952 33.8293 345.032 34.288 345.384 34.704C346.728 36.3253 346.739 38.0053 345.416 39.744C345.064 40.2027 344.963 40.7093 345.112 41.264C345.496 42.736 345.928 43.616 345.704 45.248C344.819 51.7013 344.957 57.008 346.12 61.168C347.368 65.648 351.016 68.24 349.304 73.44C349.217 73.7064 349.204 73.9913 349.266 74.2646C349.328 74.5378 349.463 74.7892 349.656 74.992L356.072 81.552C356.168 81.6492 356.238 81.7683 356.277 81.8993C356.316 82.0302 356.322 82.1691 356.296 82.3041C356.269 82.4391 356.21 82.5663 356.124 82.675C356.037 82.7836 355.926 82.8703 355.8 82.928C346.627 87.12 337.283 87.0293 327.768 82.656C327.245 82.4107 327.187 82.0853 327.592 81.68L334.088 75.104C334.298 74.8882 334.45 74.6232 334.529 74.3346C334.607 74.046 334.61 73.7435 334.536 73.456L333.928 71.072C333.8 70.5387 333.848 70.0267 334.072 69.536C337.272 62.544 339.672 57.168 338.488 49.2C338.072 46.416 338.141 43.6853 338.696 41.008C338.737 40.8009 338.733 40.5873 338.686 40.3807C338.64 40.1742 338.55 39.9791 338.424 39.808C337.101 37.9733 337.096 36.192 338.408 34.464C338.76 34.0053 338.824 33.5093 338.6 32.976C335.56 25.888 329.272 24.672 323.912 30.464C323.571 30.8373 323.507 31.2533 323.72 31.712C324.296 32.9493 324.792 34.2347 325.208 35.568C327.779 43.8453 330.989 51.264 334.84 57.824C335.128 58.304 335.123 58.7787 334.824 59.248C332.829 62.4907 331.427 64.4747 330.616 65.2C326.072 69.3493 321.096 70.4107 315.688 68.384C311.192 66.688 309.8 62.512 307.352 58.88C306.989 58.3467 306.957 57.8027 307.256 57.248C311.469 49.2693 315.24 41.1093 318.568 32.768C318.92 31.8827 318.664 31.2427 317.8 30.848C315.24 29.68 312.344 26.144 314.408 23.328C314.578 23.0992 314.815 22.9287 315.085 22.8401C315.356 22.7516 315.648 22.7493 315.92 22.8336C316.192 22.9179 316.432 23.0846 316.605 23.3107C316.778 23.5369 316.877 23.8112 316.888 24.096L316.92 24.992C316.93 25.3817 317.037 25.7627 317.232 26.1003C317.427 26.438 317.703 26.7215 318.035 26.9251C318.368 27.1287 318.746 27.2459 319.135 27.2659C319.524 27.286 319.912 27.2083 320.264 27.04L332.536 21.2C332.767 21.0949 333.014 21.0456 333.256 21.056C335.581 21.2267 337.704 21.9733 339.624 23.296C340.36 23.808 340.707 23.616 340.664 22.72ZM352.2 57.072C352.169 57.1524 352.157 57.2392 352.167 57.3249C352.177 57.4106 352.208 57.4925 352.257 57.5636C352.306 57.6346 352.372 57.6926 352.448 57.7324C352.525 57.7722 352.61 57.7927 352.696 57.792L373.32 57.296C373.409 57.2963 373.497 57.2741 373.575 57.2315C373.653 57.1888 373.719 57.1271 373.767 57.0521C373.815 56.977 373.843 56.8911 373.849 56.8023C373.855 56.7135 373.838 56.6246 373.8 56.544L362.872 31.856C362.829 31.7606 362.759 31.6801 362.67 31.6248C362.581 31.5694 362.478 31.5417 362.373 31.5451C362.269 31.5486 362.168 31.583 362.083 31.644C361.998 31.7051 361.933 31.79 361.896 31.888L352.2 57.072ZM318.44 37.552C315.688 44.112 312.819 50.4053 309.832 56.432C309.792 56.5143 309.773 56.6055 309.777 56.6972C309.781 56.7888 309.808 56.8779 309.856 56.9561C309.904 57.0343 309.971 57.0992 310.051 57.1446C310.13 57.1901 310.22 57.2146 310.312 57.216L331.416 57.744C332.045 57.7547 332.227 57.472 331.96 56.896C328.397 49.2693 325.293 41.28 322.648 32.928C322.509 32.4907 322.275 32.112 321.944 31.792C321.581 31.4613 321.176 31.3653 320.728 31.504C320.28 31.6533 320.013 31.9573 319.928 32.416C319.608 34.2187 319.112 35.9307 318.44 37.552Z" fill="#657ED4"/>
<path d="M340.664 22.72C340.6 21.12 339.885 19.8027 338.52 18.768C337.496 17.9893 337.224 16.9973 337.704 15.792C338.323 14.2347 339.427 12.7307 341.016 11.28C341.645 10.7147 342.264 10.7307 342.872 11.328C346.008 14.448 348.168 17.616 343.416 20.928C342.605 21.4827 342.515 22.1387 343.144 22.896L343.448 23.248C343.563 23.3867 343.729 23.4745 343.908 23.4925C344.088 23.5104 344.267 23.4571 344.408 23.344C352.808 16.48 358.088 27.616 365.928 27.12C366.664 27.0667 367.027 26.672 367.016 25.936L367 23.648C367 23.5078 367.032 23.3694 367.094 23.2437C367.157 23.118 367.247 23.0083 367.358 22.9231C367.47 22.838 367.599 22.7797 367.737 22.7528C367.875 22.7259 368.017 22.7311 368.152 22.768L368.728 22.928C369.061 23.0174 369.359 23.2062 369.582 23.4692C369.805 23.7322 369.942 24.0569 369.976 24.4C370.285 27.6107 368.84 29.7707 365.64 30.88C364.84 31.1573 364.611 31.6853 364.952 32.464L376.088 57.424C376.312 57.936 376.307 58.4533 376.072 58.976C373.832 63.856 371.544 68.128 365.592 69.024C357.987 70.1653 352.472 66.848 349.048 59.072C348.813 58.5173 348.84 57.9787 349.128 57.456C353.309 49.8827 356.925 41.248 359.976 31.552C360.179 30.912 360.04 30.3573 359.56 29.888C353.976 24.416 347.64 26.64 345.144 33.328C344.952 33.8293 345.032 34.288 345.384 34.704C346.728 36.3253 346.739 38.0053 345.416 39.744C345.064 40.2027 344.963 40.7093 345.112 41.264C345.496 42.736 345.928 43.616 345.704 45.248C344.819 51.7013 344.957 57.008 346.12 61.168C347.368 65.648 351.016 68.24 349.304 73.44C349.217 73.7064 349.204 73.9913 349.266 74.2646C349.328 74.5378 349.463 74.7892 349.656 74.992L356.072 81.552C356.168 81.6492 356.238 81.7683 356.277 81.8993C356.316 82.0302 356.322 82.1691 356.296 82.3041C356.269 82.4391 356.21 82.5663 356.124 82.675C356.037 82.7836 355.926 82.8703 355.8 82.928C346.627 87.12 337.283 87.0293 327.768 82.656C327.245 82.4107 327.187 82.0853 327.592 81.68L334.088 75.104C334.298 74.8882 334.45 74.6232 334.529 74.3346C334.607 74.046 334.61 73.7435 334.536 73.456L333.928 71.072C333.8 70.5387 333.848 70.0267 334.072 69.536C337.272 62.544 339.672 57.168 338.488 49.2C338.072 46.416 338.141 43.6853 338.696 41.008C338.737 40.8009 338.733 40.5873 338.686 40.3807C338.64 40.1742 338.55 39.9791 338.424 39.808C337.101 37.9733 337.096 36.192 338.408 34.464C338.76 34.0053 338.824 33.5093 338.6 32.976C335.56 25.888 329.272 24.672 323.912 30.464C323.571 30.8373 323.507 31.2533 323.72 31.712C324.296 32.9493 324.792 34.2347 325.208 35.568C327.779 43.8453 330.989 51.264 334.84 57.824C335.128 58.304 335.123 58.7787 334.824 59.248C332.829 62.4907 331.427 64.4747 330.616 65.2C326.072 69.3493 321.096 70.4107 315.688 68.384C311.192 66.688 309.8 62.512 307.352 58.88C306.989 58.3467 306.957 57.8027 307.256 57.248C311.469 49.2693 315.24 41.1093 318.568 32.768C318.92 31.8827 318.664 31.2427 317.8 30.848C315.24 29.68 312.344 26.144 314.408 23.328C314.578 23.0992 314.815 22.9287 315.085 22.8401C315.356 22.7516 315.648 22.7493 315.92 22.8336C316.192 22.9179 316.432 23.0846 316.605 23.3107C316.778 23.5369 316.877 23.8112 316.888 24.096L316.92 24.992C316.93 25.3817 317.037 25.7627 317.232 26.1003C317.427 26.438 317.703 26.7215 318.035 26.9251C318.368 27.1287 318.746 27.2459 319.135 27.2659C319.524 27.286 319.912 27.2083 320.264 27.04L332.536 21.2C332.767 21.0949 333.014 21.0456 333.256 21.056C335.581 21.2267 337.704 21.9733 339.624 23.296C340.36 23.808 340.707 23.616 340.664 22.72ZM352.2 57.072C352.169 57.1524 352.157 57.2392 352.167 57.3249C352.177 57.4106 352.208 57.4925 352.257 57.5636C352.306 57.6346 352.372 57.6926 352.448 57.7324C352.525 57.7722 352.61 57.7927 352.696 57.792L373.32 57.296C373.409 57.2963 373.497 57.2741 373.575 57.2315C373.653 57.1888 373.719 57.1271 373.767 57.0521C373.815 56.977 373.843 56.8911 373.849 56.8023C373.855 56.7135 373.838 56.6246 373.8 56.544L362.872 31.856C362.829 31.7606 362.759 31.6801 362.67 31.6248C362.581 31.5694 362.478 31.5417 362.373 31.5451C362.269 31.5486 362.168 31.583 362.083 31.644C361.998 31.7051 361.933 31.79 361.896 31.888L352.2 57.072ZM318.44 37.552C315.688 44.112 312.819 50.4053 309.832 56.432C309.792 56.5143 309.773 56.6055 309.777 56.6972C309.781 56.7888 309.808 56.8779 309.856 56.9561C309.904 57.0343 309.971 57.0992 310.051 57.1446C310.13 57.1901 310.22 57.2146 310.312 57.216L331.416 57.744C332.045 57.7547 332.227 57.472 331.96 56.896C328.397 49.2693 325.293 41.28 322.648 32.928C322.509 32.4907 322.275 32.112 321.944 31.792C321.581 31.4613 321.176 31.3653 320.728 31.504C320.28 31.6533 320.013 31.9573 319.928 32.416C319.608 34.2187 319.112 35.9307 318.44 37.552Z" stroke="#657ED4" stroke-opacity="0.37" stroke-width="2" mask="url(#path-32-outside-1_19_139)"/>
<path d="M407.448 40.608C407.821 34.7733 407.944 28.5013 407.816 21.7919C407.805 21.1199 407.619 20.5013 407.256 19.936C406.947 19.456 406.771 18.944 406.728 18.4C406.664 17.5466 406.893 17.4613 407.416 18.144C415.928 29.28 412.872 40.272 408.776 52.384C408.499 53.1946 408.205 53.2 407.896 52.4C406.371 48.496 403.965 44.4586 400.68 40.2879C397.864 36.7199 396.072 32.432 394.568 28.16C393.96 26.4 394.296 26.1973 395.576 27.552C399.672 31.856 404.664 34.88 406.792 40.704C407.165 41.728 407.384 41.696 407.448 40.608Z" fill="#657ED4"/>
<path d="M406.994 39.8486C405.878 37.1742 404.168 35.0931 402.275 33.2041C401.372 32.3029 400.421 31.4392 399.473 30.578C399.346 30.4633 399.22 30.3486 399.094 30.2338C398.017 29.2546 396.949 28.2693 395.939 27.2078C395.613 26.8626 395.325 26.5933 395.083 26.4208C394.964 26.3358 394.83 26.2556 394.689 26.2096C394.554 26.1653 394.326 26.127 394.106 26.2598C393.885 26.3929 393.813 26.6125 393.789 26.7537C393.765 26.8999 393.774 27.0558 393.794 27.2006C393.835 27.4949 393.94 27.8743 394.096 28.3232L394.096 28.3232L394.096 28.326C395.604 32.6093 397.418 36.962 400.287 40.5973C403.55 44.7389 405.927 48.7335 407.43 52.5811C407.514 52.7979 407.61 52.9974 407.727 53.1511C407.832 53.2898 408.039 53.5017 408.357 53.4959C408.676 53.4901 408.875 53.2703 408.975 53.1275C409.086 52.9692 409.174 52.7658 409.249 52.5458L409.25 52.5441C413.342 40.4441 416.501 29.2056 407.813 17.8403L407.813 17.84C407.674 17.658 407.532 17.4972 407.39 17.3844C407.284 17.3005 407.008 17.1046 406.678 17.2273C406.345 17.3513 406.266 17.684 406.243 17.8172C406.211 17.9957 406.212 18.2098 406.229 18.4374L406.23 18.4391C406.279 19.0693 406.484 19.6602 406.835 20.2063C407.148 20.6932 407.307 21.221 407.316 21.7999L407.316 21.8015C407.439 28.2207 407.331 34.2363 406.994 39.8486Z" stroke="#657ED4" stroke-opacity="0.37"/>
<path d="M275.96 42.656C277.992 36.064 281.992 33.312 286.424 28.992C287.779 27.68 288.2 27.9306 287.688 29.744C286.664 33.44 285.016 37.328 282.616 40.336C279.32 44.432 276.861 48.6773 275.24 53.072C274.973 53.7973 274.717 53.7973 274.472 53.072C270.408 41.12 266.408 31.264 274.76 19.584C274.909 19.3813 275.107 19.2586 275.352 19.216C275.48 19.184 275.613 19.216 275.752 19.312C275.816 19.3547 275.832 19.4133 275.8 19.488C274.744 21.5573 274.285 23.488 274.424 25.28C274.883 31.1147 275.229 36.8853 275.464 42.592C275.496 43.6053 275.661 43.6267 275.96 42.656Z" fill="#657ED4"/>
<path d="M288.17 29.8786C287.135 33.6125 285.463 37.5694 283.007 40.6478L283.006 40.6495C279.74 44.7082 277.31 48.9066 275.709 53.2445C275.637 53.4423 275.552 53.6275 275.448 53.7723C275.357 53.8983 275.162 54.116 274.848 54.116C274.53 54.116 274.336 53.8934 274.247 53.7643C274.145 53.6173 274.065 53.4303 273.998 53.2323C273.803 52.6579 273.608 52.0875 273.413 51.5207C271.596 46.2178 269.887 41.2317 269.462 36.2687C268.988 30.7368 270.105 25.2336 274.353 19.2932L274.357 19.2874L274.357 19.2874C274.579 18.9867 274.884 18.794 275.25 18.7263C275.546 18.659 275.817 18.7499 276.034 18.8989C276.137 18.9692 276.248 19.0847 276.294 19.2564C276.341 19.4264 276.305 19.5787 276.26 19.6849L276.253 19.7003L276.245 19.7152C275.219 21.7259 274.793 23.564 274.922 25.2408C275.346 30.6337 275.675 35.9722 275.908 41.2563L288.17 29.8786ZM288.17 29.8786C288.169 29.879 288.169 29.8794 288.169 29.8798L287.688 29.744L288.17 29.8775C288.17 29.8778 288.17 29.8782 288.17 29.8786Z" stroke="#657ED4" stroke-opacity="0.37"/>
<path d="M57.9992 80.2173C55.32 79.7545 52.7608 78.7535 50.4677 77.2713C48.1746 75.7891 46.1925 73.8549 44.6346 71.579C43.0767 69.3031 41.9735 66.7301 41.3879 64.007C40.8024 61.2838 40.7461 58.4638 41.2221 55.708C41.6981 52.9522 42.6972 50.3145 44.1622 47.9455C45.6273 45.5765 47.5297 43.5227 49.7608 41.9013C51.9919 40.2799 54.508 39.1226 57.1654 38.4955C59.8228 37.8685 62.5696 37.7839 65.2488 38.2467C67.928 38.7095 70.4873 39.7105 72.7804 41.1927C75.0735 42.6749 77.0556 44.6091 78.6135 46.885C80.1714 49.1609 81.2746 51.7339 81.8601 54.457C82.4456 57.1802 82.5019 60.0002 82.0259 62.756C81.5499 65.5118 80.5509 68.1495 79.0858 70.5185C77.6207 72.8874 75.7183 74.9413 73.4872 76.5627C71.2562 78.1841 68.7401 79.3414 66.0826 79.9685C63.4252 80.5955 60.6784 80.6801 57.9992 80.2173ZM63.733 78.956C67.5677 78.5394 71.0198 76.0635 73.3299 72.0729C75.6399 68.0824 76.6187 62.9041 76.0509 57.6773C75.4831 52.4504 73.4152 47.6031 70.3021 44.2017C67.189 40.8003 63.2858 39.1234 59.4511 39.54C55.6163 39.9566 52.1642 42.4325 49.8542 46.423C47.5441 50.4136 46.5653 55.5918 47.1331 60.8187C47.701 66.0456 49.7689 70.8929 52.8819 74.2943C55.995 77.6957 59.8982 79.3726 63.733 78.956Z" fill="#FFFAED"/>
<path d="M408.088 60.912C408.952 59.216 408.92 56.944 409.752 55.184C412.205 50 413.811 44.7146 414.568 39.328C414.877 37.184 415.272 37.168 415.752 39.28C417.736 47.888 416.472 57.808 410.728 64.816C408.765 67.2053 406.883 69.7067 405.08 72.32C404.483 73.184 404.2 73.088 404.232 72.032C404.312 69.36 404.472 65.904 403.624 63.44C401.043 55.792 399.453 48.656 398.856 42.032C398.749 40.912 398.984 40.8373 399.56 41.808C402.84 47.312 407.848 54.224 407.544 60.768C407.501 61.6533 407.683 61.7013 408.088 60.912Z" fill="#657ED4"/>
<path d="M405.08 72.32C404.483 73.184 404.2 73.088 404.232 72.032C404.236 71.8879 404.241 71.7416 404.245 71.5932C404.326 68.9902 404.426 65.7711 403.624 63.44C401.043 55.792 399.453 48.656 398.856 42.032L405.08 72.32ZM405.08 72.32C406.883 69.7067 408.765 67.2053 410.728 64.816M405.08 72.32L410.728 64.816M398.358 42.0781C398.96 48.7482 400.559 55.9227 403.15 63.5999L403.151 63.6027C403.552 64.7658 403.721 66.1885 403.776 67.6765C403.826 69.0019 403.784 70.3486 403.746 71.5778C403.741 71.7259 403.737 71.8723 403.732 72.0168C403.732 72.0169 403.732 72.0169 403.732 72.017L398.358 42.0781ZM398.358 42.0781C398.331 41.7888 398.321 41.5346 398.343 41.3347C398.353 41.2367 398.374 41.1199 398.423 41.0099C398.471 40.9023 398.579 40.7298 398.8 40.6595C399.02 40.5896 399.208 40.6665 399.308 40.7251C399.411 40.7854 399.497 40.8673 399.563 40.9405C399.698 41.09 399.841 41.3014 399.99 41.5525C400.455 42.3324 400.959 43.1472 401.479 43.9895C402.776 46.0857 404.177 48.3519 405.343 50.6736C406.797 53.57 407.924 56.6216 408.046 59.6508C408.203 59.1295 408.321 58.566 408.442 57.972C408.448 57.9413 408.455 57.9105 408.461 57.8796C408.656 56.9206 408.867 55.886 409.3 54.9703L409.3 54.9701C411.733 49.8292 413.323 44.5924 414.073 39.2584L414.073 39.2566C414.152 38.7128 414.239 38.2757 414.341 37.964C414.39 37.8112 414.453 37.6578 414.539 37.5322C414.615 37.4208 414.786 37.2201 415.076 37.2084C415.366 37.1966 415.553 37.3829 415.637 37.4879C415.733 37.6063 415.808 37.7541 415.869 37.9024C415.996 38.2048 416.118 38.6333 416.24 39.1688L398.358 42.0781ZM410.728 64.816C416.472 57.808 417.736 47.888 415.752 39.28L410.728 64.816Z" stroke="#657ED4" stroke-opacity="0.37"/>
<path d="M536.729 80.1886C531.321 79.2351 526.524 76.1127 523.394 71.5084C520.263 66.904 519.055 61.1948 520.035 55.6368C521.015 50.0787 524.103 45.1271 528.619 41.8712C533.136 38.6153 538.712 37.3219 544.119 38.2754C549.527 39.2289 554.324 42.3512 557.454 46.9556C560.585 51.56 561.793 57.2691 560.813 62.8272C559.833 68.3852 556.745 73.3369 552.229 76.5928C547.712 79.8487 542.136 81.1421 536.729 80.1886ZM542.483 78.9597C546.318 78.5497 549.774 76.0799 552.091 72.0934C554.408 68.107 555.396 62.9304 554.838 57.7025C554.279 52.4747 552.219 47.6238 549.112 44.2169C546.005 40.8101 542.105 39.1264 538.269 39.5363C534.434 39.9462 530.978 42.4161 528.661 46.4025C526.344 50.389 525.356 55.5656 525.914 60.7934C526.473 66.0213 528.533 70.8722 531.64 74.279C534.747 77.6859 538.647 79.3695 542.483 78.9597Z" fill="#FFFAED"/>
<path d="M650.002 80.2014C644.591 79.2668 639.783 76.1612 636.636 71.5678C633.49 66.9744 632.261 61.2695 633.222 55.708C633.698 52.9543 634.696 50.3186 636.161 47.9516C637.626 45.5845 639.528 43.5325 641.759 41.9125C643.99 40.2926 646.505 39.1364 649.163 38.5102C651.82 37.8839 654.567 37.7998 657.246 38.2626C662.657 39.1972 667.465 42.3028 670.611 46.8962C673.758 51.4896 674.986 57.1946 674.026 62.756C673.55 65.5098 672.551 68.1454 671.087 70.5124C669.622 72.8795 667.72 74.9316 665.489 76.5515C663.258 78.1715 660.742 79.3276 658.085 79.9539C655.428 80.5801 652.681 80.6642 650.002 80.2014ZM655.733 78.956C659.568 78.5394 663.02 76.0635 665.33 72.073C667.64 68.0824 668.619 62.9042 668.051 57.6773C667.483 52.4504 665.415 47.6031 662.302 44.2017C659.189 40.8003 655.286 39.1234 651.451 39.54C647.616 39.9566 644.164 42.4325 641.854 46.423C639.544 50.4136 638.565 55.5919 639.133 60.8187C639.701 66.0456 641.769 70.8929 644.882 74.2943C647.995 77.6957 651.898 79.3726 655.733 78.956Z" fill="#FFFAED"/>
<path d="M89.1121 68.48C91.9441 76.224 99.4481 81.312 106.92 76.816C110.84 74.448 111.512 68.72 108.216 65.568C104.456 61.984 98.5041 61.408 94.2161 58.496C86.5041 53.248 87.8001 43.184 96.2641 39.68C100.541 37.92 105.661 37.7973 111.624 39.312C111.849 39.3734 112.05 39.5015 112.198 39.679C112.347 39.8565 112.437 40.0747 112.456 40.304L113.192 48.816C113.405 51.3013 112.952 51.424 111.832 49.184C109.24 43.984 106.744 40.256 100.152 40.432C95.4961 40.56 91.5441 44.4 93.2881 49.216C96.8081 58.96 116.84 54.416 114.408 69.648C112.52 81.536 97.8321 81.424 89.1921 79.152C88.6907 79.0133 88.408 78.6827 88.344 78.16C87.9494 74.7573 87.7734 71.6053 87.8161 68.704C87.8481 66.2827 88.2801 66.208 89.1121 68.48Z" fill="#FFFAED"/>
<path d="M227.112 61.712L217.32 61.664C216.648 61.664 216.189 61.9733 215.944 62.592C214.808 65.472 211.304 75.664 215.32 77.552C218.349 78.96 218.195 79.6533 214.856 79.6319C211.176 79.6106 207.64 79.5893 204.248 79.568C203.181 79.5573 203.064 79.2213 203.896 78.56C204.365 78.176 204.893 77.8453 205.48 77.568C206.12 77.2587 206.632 76.8053 207.016 76.208C209.064 73.0186 210.781 69.5733 212.168 65.872C215.507 56.976 218.76 48.2933 221.928 39.824C222.044 39.5389 222.218 39.2778 222.44 39.056C223.261 38.2666 224.045 38.1813 224.792 38.8C225.325 39.2266 225.709 39.76 225.944 40.4C229.965 51.2266 234.168 62.3093 238.552 73.648C239.341 75.696 240.669 77.2 242.536 78.16C244.392 79.12 244.28 79.6 242.2 79.6H230.696C228.499 79.6 228.339 79.0293 230.216 77.888C232.339 76.5973 232.92 74.48 231.96 71.536C230.968 68.5173 229.917 65.632 228.808 62.88C228.509 62.1013 227.944 61.712 227.112 61.712ZM216.936 59.392C216.911 59.4718 216.905 59.5566 216.918 59.6392C216.932 59.7219 216.966 59.8 217.016 59.8673C217.066 59.9345 217.131 59.9888 217.206 60.0258C217.281 60.0628 217.364 60.0814 217.448 60.08L226.968 59.952C227.052 59.9517 227.135 59.9312 227.21 59.8923C227.285 59.8533 227.349 59.797 227.398 59.7281C227.446 59.6591 227.478 59.5796 227.489 59.4961C227.501 59.4125 227.492 59.3275 227.464 59.248L222.504 45.728C222.465 45.6268 222.396 45.54 222.307 45.4794C222.217 45.4187 222.111 45.3871 222.002 45.3889C221.894 45.3906 221.789 45.4256 221.701 45.4891C221.614 45.5527 221.547 45.6416 221.512 45.744L216.936 59.392Z" fill="#FFFAED"/>
<path d="M11.4 62.624C11.3893 65.6426 11.4053 68.944 11.448 72.528C11.48 75.536 12.7493 77.392 15.256 78.096C15.736 78.224 16.0347 78.528 16.152 79.008C16.184 79.1467 16.1627 79.28 16.088 79.408C16.0347 79.5253 15.944 79.584 15.816 79.584L1.99198 79.6C1.59732 79.6 1.42665 79.408 1.47998 79.024C1.50132 78.864 1.54399 78.7093 1.60799 78.56C1.60799 78.5387 1.61865 78.528 1.63999 78.528C4.47732 77.6533 5.92798 75.984 5.99198 73.52C6.21598 65.0507 6.26932 55.936 6.15199 46.176C6.11999 43.264 4.85598 41.344 2.35998 40.416C2.09331 40.3093 1.86398 40.1493 1.67198 39.936C1.52265 39.7653 1.47998 39.5787 1.54398 39.376C1.63998 39.1093 1.82665 38.976 2.10398 38.976C10.36 38.6987 16.616 38.72 20.872 39.04C33.48 39.984 34.28 55.312 23.08 59.952C22.3866 60.24 22.2213 60.72 22.584 61.392C25.88 67.504 31.24 76.304 38.232 78.464C39.6293 78.8907 39.6133 79.2587 38.184 79.568C32.4667 80.816 28.0933 79.4773 25.064 75.552C22.2 71.856 19.784 66.784 17.4 62.48C17.08 61.904 16.5947 61.6107 15.944 61.6L12.52 61.536C11.784 61.5253 11.4107 61.888 11.4 62.624ZM11.336 41.984L11.432 58.272C11.432 58.6878 11.5972 59.0867 11.8912 59.3807C12.1853 59.6748 12.5841 59.84 13 59.84L16.232 59.824C17.4381 59.8178 18.6312 59.5712 19.7431 59.0982C20.8549 58.6253 21.8639 57.9352 22.7122 57.0676C23.5606 56.1999 24.2318 55.1715 24.6875 54.0412C25.1431 52.9109 25.3744 51.7008 25.368 50.48V49.648C25.3551 47.1826 24.3753 44.8233 22.6439 43.0889C20.9126 41.3546 18.5716 40.3874 16.136 40.4L12.904 40.416C12.4881 40.416 12.0893 40.5812 11.7952 40.8753C11.5012 41.1693 11.336 41.5681 11.336 41.984Z" fill="#FFFAED"/>
<path d="M129.16 62.448C127.944 66 124.152 75.792 129.16 77.968C131.485 78.9707 131.384 79.504 128.856 79.568C124.909 79.6534 121.091 79.6427 117.4 79.536C116.333 79.504 116.248 79.2 117.144 78.624C119.864 76.896 121.891 74.3734 123.224 71.056C127.48 60.4534 131.432 50.0107 135.08 39.728C135.229 39.3014 135.517 39.0027 135.944 38.832C136.669 38.5654 137.373 38.576 138.056 38.864C138.44 39.0133 138.701 39.28 138.84 39.664C143.128 51.0347 147.352 62.1974 151.512 73.152C152.333 75.3174 153.693 76.9387 155.592 78.016C157.32 79.008 157.192 79.5147 155.208 79.536C151.635 79.6 147.939 79.6267 144.12 79.616C141.645 79.616 141.469 78.9814 143.592 77.712C145.576 76.528 146.12 74.5493 145.224 71.776C144.179 68.5653 143.08 65.536 141.928 62.688C141.693 62.0907 141.256 61.7867 140.616 61.776L130.296 61.632C129.72 61.632 129.341 61.904 129.16 62.448ZM130.168 59.376C130.143 59.458 130.137 59.5449 130.152 59.6294C130.167 59.714 130.201 59.7938 130.253 59.8625C130.304 59.9311 130.371 59.9866 130.448 60.0244C130.525 60.0622 130.61 60.0813 130.696 60.08L140.152 59.936C140.239 59.934 140.324 59.9111 140.4 59.8694C140.477 59.8277 140.542 59.7683 140.59 59.6962C140.639 59.6241 140.669 59.5414 140.679 59.4551C140.69 59.3688 140.679 59.2813 140.648 59.2L135.704 45.696C135.665 45.5911 135.594 45.501 135.501 45.4379C135.408 45.3749 135.299 45.342 135.186 45.3437C135.074 45.3455 134.966 45.3818 134.875 45.4477C134.784 45.5136 134.716 45.606 134.68 45.712L130.168 59.376Z" fill="#FFFAED"/>
<path d="M165.288 46.624C165.4 52.912 165.832 58.832 165.832 64.912C165.848 70.24 166.952 76.704 172.888 78.224C173.293 78.3307 173.507 78.5867 173.528 78.992C173.539 79.1947 173.437 79.36 173.224 79.488C173.128 79.552 173.016 79.584 172.888 79.584L159.912 79.6C158.973 79.6 158.835 79.2693 159.496 78.608C159.933 78.1813 160.424 77.8027 160.968 77.472C161.523 77.1414 161.896 76.672 162.088 76.064C162.867 73.6853 163.299 70.864 163.384 67.6C163.597 59.12 163.667 51.12 163.592 43.6C163.581 42.1173 162.797 41.1307 161.24 40.64C161.197 40.6293 161.155 40.6187 161.112 40.608C160.141 40.1813 159.757 39.744 159.96 39.296C160.077 39.0187 160.291 38.88 160.6 38.88L166.904 38.912C167.501 38.912 167.992 39.1467 168.376 39.616L194.744 70.944C195.587 71.9467 195.981 71.792 195.928 70.48C195.693 65.1467 195.501 59.6 195.352 53.84C195.208 48.624 194.424 41.488 188.456 40.224C188.355 40.2002 188.26 40.1543 188.179 40.0895C188.097 40.0247 188.031 39.9427 187.985 39.8494C187.94 39.7561 187.915 39.6537 187.913 39.5498C187.912 39.4458 187.933 39.3427 187.976 39.248C188.061 39.0667 188.2 38.976 188.392 38.976C192.499 38.8693 196.675 38.8587 200.92 38.944C202.381 38.976 202.52 39.4133 201.336 40.256C197.912 42.688 198.088 46.016 197.976 50.016C197.699 59.4133 197.592 68.5013 197.656 77.28C197.688 81.1093 196.467 81.5627 193.992 78.64L166.44 46.176C165.651 45.248 165.267 45.3973 165.288 46.624Z" fill="#FFFAED"/>
<path d="M452.328 62.592C450.792 66.768 447.368 76.432 452.744 78.096C453.031 78.1917 453.31 78.3205 453.576 78.48C453.875 78.6613 453.955 78.9173 453.816 79.248C453.731 79.44 453.587 79.5413 453.384 79.552C449.128 79.648 444.867 79.6427 440.6 79.536C439.533 79.5147 439.448 79.216 440.344 78.64C443.085 76.8907 445.144 74.288 446.52 70.832C450.68 60.4 454.611 50.0107 458.312 39.664C458.377 39.4785 458.482 39.3094 458.621 39.1684C458.759 39.0274 458.927 38.9181 459.112 38.848C459.837 38.5813 460.547 38.5813 461.24 38.848C461.635 39.008 461.907 39.2854 462.056 39.68C466.184 50.6774 470.419 61.8667 474.76 73.248C475.613 75.488 476.931 77.056 478.712 77.952C480.696 78.9653 480.579 79.4933 478.36 79.536C474.787 79.6107 471.219 79.6427 467.656 79.632C464.755 79.632 464.563 78.9067 467.08 77.456C468.68 76.5387 469.203 75.0187 468.648 72.896C467.709 69.3227 466.52 65.888 465.08 62.592C464.845 62.048 464.429 61.776 463.832 61.776L453.736 61.632C453.428 61.6284 453.126 61.7189 452.874 61.8909C452.622 62.0629 452.431 62.3079 452.328 62.592ZM453.368 59.376C453.343 59.458 453.337 59.5449 453.352 59.6294C453.367 59.714 453.401 59.7938 453.453 59.8625C453.504 59.9311 453.571 59.9866 453.648 60.0244C453.725 60.0622 453.81 60.0813 453.896 60.08L463.352 59.936C463.439 59.934 463.524 59.9111 463.6 59.8694C463.677 59.8276 463.742 59.7683 463.79 59.6962C463.839 59.6241 463.869 59.5414 463.879 59.4551C463.889 59.3688 463.879 59.2813 463.848 59.2L458.904 45.696C458.865 45.5911 458.794 45.501 458.701 45.4379C458.608 45.3749 458.498 45.342 458.386 45.3437C458.274 45.3455 458.166 45.3818 458.075 45.4477C457.984 45.5136 457.916 45.6059 457.88 45.712L453.368 59.376Z" fill="#FFFAED"/>
<path d="M505.208 58.4959C507.704 59.2479 510.408 59.9999 512.024 62.1279C518.472 70.5759 510.6 79.088 501.528 79.472C495.619 79.7173 489.48 79.7173 483.112 79.472C482.984 79.472 482.861 79.4346 482.744 79.36C482.563 79.2533 482.536 79.0666 482.664 78.7999C482.835 78.4693 483.096 78.2453 483.448 78.1279C485.869 77.3173 487.107 75.616 487.16 73.024C487.352 63.744 487.363 54.6346 487.192 45.6959C487.16 44.2453 486.739 42.9813 485.928 41.9039C485.597 41.4559 485.165 41.1466 484.632 40.9759C483.96 40.7519 483.352 40.4106 482.808 39.9519C482.725 39.8775 482.666 39.78 482.639 39.672C482.612 39.5639 482.618 39.4503 482.656 39.3455C482.693 39.2407 482.761 39.1496 482.851 39.0838C482.941 39.0179 483.049 38.9804 483.16 38.9759C488.675 38.8266 494.157 38.8319 499.608 38.9919C503.592 39.1039 508.2 40.5119 510.248 44.1599C513.256 49.4559 510.552 55.0079 505.144 57.3599C504.131 57.7973 504.152 58.1759 505.208 58.4959ZM492.424 41.8719L492.488 56.2079C492.488 56.5262 492.614 56.8314 492.839 57.0565C493.064 57.2815 493.37 57.4079 493.688 57.4079L497.864 57.3919C499.983 57.3833 502.011 56.5614 503.505 55.1066C504.999 53.6518 505.836 51.6829 505.832 49.6319V48.3839C505.83 47.3656 505.621 46.3576 505.216 45.4178C504.811 44.4779 504.218 43.6247 503.472 42.9068C502.726 42.189 501.841 41.6207 500.868 41.2345C499.894 40.8482 498.852 40.6516 497.8 40.6559L493.624 40.6719C493.306 40.6719 493 40.7984 492.775 41.0234C492.55 41.2484 492.424 41.5537 492.424 41.8719ZM492.52 60.1759L492.392 76.8799C492.39 77.0199 492.416 77.159 492.468 77.289C492.52 77.4189 492.597 77.5372 492.695 77.637C492.794 77.7368 492.911 77.816 493.04 77.8701C493.169 77.9241 493.308 77.952 493.448 77.9519L499 77.9839C501.522 78.0017 503.949 77.0614 505.746 75.3694C507.543 73.6775 508.563 71.3722 508.584 68.9599V68.3519C508.594 67.1553 508.358 65.9683 507.888 64.8589C507.418 63.7494 506.724 62.7393 505.846 61.8863C504.968 61.0333 503.922 60.3542 502.769 59.8877C501.617 59.4213 500.379 59.1767 499.128 59.1679L493.576 59.136C493.299 59.1359 493.032 59.245 492.835 59.4396C492.637 59.6342 492.524 59.8987 492.52 60.1759Z" fill="#FFFAED"/>
<path d="M602.584 71.024C602.691 63.3973 602.339 55.808 601.528 48.256C601.069 43.9573 598.995 41.2427 595.304 40.112C595.005 40.0267 594.856 39.8293 594.856 39.52C594.856 39.328 594.947 39.1573 595.128 39.008C595.211 38.9355 595.325 38.8956 595.448 38.896L607.816 38.912C609.437 38.912 609.565 39.3493 608.2 40.224C605.949 41.6533 604.819 44.0693 604.808 47.472C604.792 57.744 604.408 67.648 604.472 76.992C604.504 81.024 603.213 81.504 600.6 78.432L572.84 45.712C572.792 45.6515 572.726 45.6076 572.652 45.5866C572.577 45.5657 572.498 45.5687 572.425 45.5953C572.353 45.6218 572.29 45.6706 572.247 45.7346C572.204 45.7987 572.182 45.8747 572.184 45.952C572.205 54.144 572.493 61.952 573.048 69.376C573.389 73.9307 575.656 76.9387 579.848 78.4C580.083 78.4747 580.243 78.6293 580.328 78.864C580.424 79.088 580.408 79.264 580.28 79.392C580.173 79.4986 580.045 79.5573 579.896 79.568C575.213 79.6427 570.781 79.632 566.6 79.536C565.651 79.5146 565.565 79.232 566.344 78.688C570.504 75.776 570.024 70.64 570.136 66.256C570.328 58.8853 570.451 51.6533 570.504 44.56C570.525 42.4053 569.453 40.9227 567.288 40.112C565.933 39.6107 565.976 39.2693 567.416 39.088C569.453 38.832 571.795 38.7787 574.44 38.928C575.059 38.9707 575.512 39.2586 575.8 39.792C576.483 41.008 577.256 42.1333 578.12 43.168C585.971 52.5013 593.891 61.8666 601.88 71.264C602.339 71.808 602.573 71.728 602.584 71.024Z" fill="#FFFAED"/>
<path d="M615.448 85.152C616.739 83.2533 617.384 80.8587 617.384 77.968C617.416 67.3867 617.421 56.6613 617.4 45.792C617.389 43.1147 616.115 41.3387 613.576 40.464C613.256 40.3467 613 40.1493 612.808 39.872C612.68 39.68 612.675 39.4827 612.792 39.28C612.963 39.0133 613.208 38.88 613.528 38.88C617.645 38.8907 621.912 38.9013 626.328 38.912C626.627 38.912 626.899 39.0027 627.144 39.184C627.389 39.3653 627.373 39.648 627.096 40.032C627.002 40.1771 626.861 40.2847 626.696 40.336C624.029 41.1253 622.691 42.976 622.68 45.888C622.648 55.0293 622.621 64.176 622.6 73.328C622.6 80.784 620.12 87.92 612.184 89.84C610.563 90.2347 608.915 90.1173 607.24 89.488C606.935 89.3731 606.657 89.1964 606.423 88.9689C606.189 88.7415 606.005 88.4683 605.882 88.1664C605.759 87.8645 605.699 87.5404 605.707 87.2144C605.715 86.8884 605.79 86.5676 605.928 86.272L606.232 85.648C606.861 84.304 607.816 84 609.096 84.736C610.536 85.5573 612.013 86.0107 613.528 86.096C613.903 86.1205 614.277 86.0463 614.614 85.8806C614.951 85.7149 615.239 85.4637 615.448 85.152Z" fill="#FFFAED"/>
<path d="M275.976 63.28C275.507 60.3253 275.731 57.696 276.648 55.392C278.408 50.944 280.429 46.72 282.712 42.72C283.704 40.9707 284.125 41.0987 283.976 43.104C283.485 49.7493 282.141 56.3947 279.944 63.04C279 65.888 278.744 69.568 279.032 72.56C279.107 73.4027 278.835 73.536 278.216 72.96C268.563 63.9467 264.931 53.216 267.32 40.768C267.704 38.7733 268.029 38.7787 268.296 40.784C268.616 43.104 268.808 45.376 269.704 47.504C271.709 52.2933 273.683 57.5787 275.624 63.36C275.635 63.4067 275.663 63.4472 275.704 63.4727C275.744 63.4982 275.793 63.5066 275.84 63.496C275.887 63.4854 275.927 63.4567 275.953 63.4162C275.978 63.3757 275.987 63.3267 275.976 63.28Z" fill="#657ED4"/>
<path d="M276.183 55.2075C275.517 56.8804 275.206 58.7081 275.24 60.6849C273.573 55.8669 271.881 51.4088 270.165 47.3109L270.165 47.31C269.426 45.5562 269.184 43.7047 268.926 41.7299C268.883 41.3958 268.839 41.0582 268.791 40.7169C268.724 40.2095 268.65 39.8028 268.565 39.5138C268.523 39.3728 268.47 39.2289 268.397 39.1099C268.341 39.0183 268.174 38.7812 267.86 38.7761C267.55 38.771 267.375 38.9972 267.315 39.0845C267.236 39.1992 267.176 39.3398 267.126 39.4791C267.024 39.7644 266.926 40.1682 266.829 40.6735L266.829 40.6738C264.406 53.299 268.102 64.2008 277.875 73.3255L277.875 73.326C278.044 73.4833 278.218 73.6202 278.392 73.7068C278.554 73.7872 278.827 73.877 279.104 73.741C279.381 73.6051 279.477 73.3351 279.513 73.1581C279.552 72.9674 279.55 72.746 279.53 72.5159L279.53 72.5121C279.247 69.5723 279.501 65.9647 280.419 63.1973L280.419 63.197C282.628 56.5148 283.981 49.8293 284.475 43.1411C284.513 42.6299 284.517 42.206 284.477 41.8888C284.457 41.7322 284.422 41.5703 284.356 41.4286C284.292 41.2896 284.161 41.0998 283.917 41.0256C283.673 40.9514 283.46 41.0368 283.328 41.1162C283.195 41.1972 283.076 41.3125 282.972 41.4315C282.762 41.6724 282.53 42.0269 282.278 42.4725C279.983 46.4936 277.952 50.7387 276.183 55.2075ZM267.32 40.768C267.409 40.3078 267.494 39.9541 267.576 39.7068L278.216 72.96C268.563 63.9467 264.931 53.216 267.32 40.768Z" stroke="#657ED4" stroke-opacity="0.37"/>
<path d="M401.256 80.432C404.829 75.536 408.845 70.752 413.304 66.08C414.765 64.5333 415.736 62.4427 416.216 59.808C416.269 59.52 416.435 59.3333 416.712 59.248C416.765 59.2373 416.819 59.2373 416.872 59.248C416.989 59.2907 417.048 59.3706 417.048 59.488C417.384 75.904 406.712 81.872 394.568 90.08C393.768 90.624 393.528 90.4373 393.848 89.52C395.693 84.2507 396.781 77.968 397.112 70.672C397.315 66.4587 398.131 62.4267 399.56 58.576C400.029 57.3173 400.307 57.3546 400.392 58.688C400.936 66.192 403.512 72.416 400.84 80.224C400.499 81.216 400.637 81.2853 401.256 80.432Z" fill="#657ED4"/>
<path d="M416.872 59.248C416.989 59.2907 417.048 59.3706 417.048 59.488M416.872 59.248L397.112 70.672C396.781 77.968 395.693 84.2507 393.848 89.52C393.528 90.4373 393.768 90.624 394.568 90.08C395.367 89.5397 396.16 89.0092 396.944 88.4847C408.069 81.0411 417.362 74.8235 417.048 59.488M416.872 59.248C416.819 59.2373 416.765 59.2373 416.712 59.248H416.872ZM417.048 59.488H417.548C417.548 59.4859 417.548 59.4838 417.548 59.4817C417.547 59.3385 417.509 59.1829 417.407 59.0443C417.306 58.9061 417.171 58.8245 417.043 58.7781L417.007 58.7651L416.97 58.7577C416.852 58.7341 416.732 58.7341 416.614 58.7577L416.589 58.7627L416.565 58.7701C416.353 58.8353 416.159 58.9478 416.006 59.1205C415.853 59.2929 415.765 59.4994 415.724 59.717L415.724 59.7184C415.257 62.2819 414.321 64.2757 412.941 65.7358C408.845 70.0283 405.12 74.4164 401.766 78.9002C402.68 75.4895 402.654 72.3599 402.319 69.2879C402.158 67.8101 401.925 66.3385 401.69 64.8608C401.647 64.5885 401.604 64.316 401.561 64.0432C401.285 62.2851 401.025 60.5071 400.891 58.6539C400.869 58.3121 400.833 58.0218 400.775 57.8031C400.747 57.6959 400.705 57.5743 400.637 57.4668C400.572 57.3635 400.431 57.1973 400.187 57.1645C399.945 57.1319 399.766 57.2525 399.677 57.3316C399.582 57.415 399.508 57.5191 399.449 57.6142C399.331 57.8084 399.212 58.0779 399.092 58.4013L399.091 58.402C397.644 62.3021 396.818 66.3848 396.613 70.648L396.613 70.6493C396.284 77.9108 395.201 84.143 393.376 89.3547L393.376 89.3553C393.291 89.6 393.229 89.832 393.214 90.0349C393.202 90.2069 393.211 90.5325 393.481 90.7427C393.753 90.9543 394.072 90.88 394.236 90.8238C394.427 90.7579 394.635 90.639 394.848 90.4942L417.048 59.488Z" stroke="#657ED4" stroke-opacity="0.37"/>
<path d="M282.008 80.736C280.504 74.4213 280.883 67.568 283.144 60.176C283.357 59.4933 283.576 59.4933 283.8 60.176C286.008 66.976 286.312 74.912 287.144 82.16C287.448 84.864 288.376 87.728 289.608 90.176C290.141 91.232 289.907 91.4506 288.904 90.832C278.568 84.432 265.72 77.504 266.792 63.232C266.867 62.2187 267.117 62.1707 267.544 63.088C268.408 64.944 269.448 67.12 270.888 68.544C275.165 72.7253 278.707 76.864 281.512 80.96C282.077 81.792 282.243 81.7173 282.008 80.736Z" fill="#657ED4"/>
<path d="M271.238 68.1875C275.214 72.0737 278.562 75.9288 281.28 79.7534C280.044 73.6448 280.513 67.0668 282.666 60.0297L282.667 60.0269C282.725 59.8413 282.794 59.6647 282.882 59.5246C282.953 59.4138 283.137 59.164 283.468 59.164C283.796 59.164 283.981 59.4105 284.052 59.52C284.143 59.6589 284.214 59.8346 284.275 60.0201L284.275 60.0216C285.999 65.3296 286.576 71.3337 287.13 77.1086C287.293 78.8009 287.454 80.4734 287.641 82.103L287.641 82.1041C287.937 84.7406 288.845 87.5474 290.054 89.9506L271.238 68.1875ZM271.238 68.1875C269.874 66.8378 268.869 64.7496 267.997 62.8771L271.238 68.1875ZM288.641 91.2575L288.641 91.2571C288.024 90.8751 287.396 90.4904 286.762 90.1017C282.113 87.2506 277.109 84.1819 273.219 80.3397C268.776 75.9518 265.743 70.516 266.293 63.1946C266.313 62.9296 266.346 62.6927 266.403 62.5065C266.431 62.4141 266.474 62.3061 266.543 62.2086C266.614 62.1094 266.742 61.9832 266.942 61.9449C267.143 61.9064 267.309 61.9773 267.412 62.0452C267.513 62.1114 267.592 62.1976 267.651 62.2737C267.771 62.4273 267.885 62.6368 267.997 62.877L288.641 91.2575ZM288.641 91.2575C288.903 91.4192 289.146 91.5463 289.358 91.6147M288.641 91.2575L289.358 91.6147M289.358 91.6147C289.464 91.6489 289.588 91.6775 289.719 91.6746M289.358 91.6147L289.719 91.6746M289.719 91.6746C289.854 91.6717 290.027 91.6332 290.173 91.4978M289.719 91.6746L290.173 91.4978M290.173 91.4978C290.318 91.3629 290.368 91.1931 290.381 91.0603M290.173 91.4978L290.381 91.0603M290.381 91.0603C290.394 90.9313 290.376 90.8052 290.351 90.6969M290.381 91.0603L290.351 90.6969M290.351 90.6969C290.3 90.48 290.194 90.2268 290.055 89.9512L290.351 90.6969Z" stroke="#657ED4" stroke-opacity="0.37"/>
<path d="M388.248 96.4C392.296 93.536 396.632 91.024 401.192 88.976C405.235 87.1627 408.568 84.1547 411.192 79.952C411.267 79.8134 411.384 79.7334 411.544 79.712C411.715 79.68 411.869 79.712 412.008 79.808C412.093 79.872 412.115 79.952 412.072 80.048C408.712 89.552 402.424 96.1547 393.208 99.856C389.032 101.536 384.824 101.2 380.52 102.624C378.995 103.125 378.744 102.757 379.768 101.52C382.712 97.9681 384.728 94.176 385.816 90.144C387.432 84.16 390.28 78.736 393.976 73.808C394.573 73.008 394.797 73.0987 394.648 74.08C393.448 81.712 392.84 89.696 387.864 96.016C387.096 96.9974 387.224 97.1254 388.248 96.4Z" fill="#657ED4"/>
<path d="M389.076 95.2153C392.844 89.7691 393.798 83.2611 394.721 76.9608C394.859 76.0204 394.996 75.0846 395.142 74.1577L395.142 74.1552C395.181 73.8986 395.202 73.6657 395.189 73.4763C395.182 73.3828 395.166 73.2691 395.12 73.1593C395.073 73.0475 394.974 72.8914 394.78 72.8125C394.586 72.7343 394.408 72.7766 394.299 72.8221C394.19 72.8673 394.098 72.9352 394.027 72.9966C393.883 73.121 393.732 73.2996 393.576 73.5087C389.848 78.479 386.968 83.9594 385.333 90.0137L385.333 90.0138C384.266 93.9696 382.286 97.6984 379.383 101.201L379.383 101.201C379.118 101.521 378.912 101.813 378.789 102.068C378.727 102.196 378.675 102.338 378.657 102.488C378.639 102.641 378.657 102.832 378.775 103.006C378.893 103.179 379.065 103.265 379.214 103.305C379.359 103.343 379.511 103.346 379.653 103.336C379.935 103.314 380.282 103.229 380.676 103.099L380.677 103.099C382.628 102.453 384.561 102.177 386.529 101.896C386.68 101.874 386.832 101.853 386.983 101.831C389.095 101.527 391.245 101.185 393.394 100.32L389.076 95.2153ZM389.076 95.2153C392.827 92.6548 396.813 90.3946 400.987 88.5199L400.987 88.5198C404.925 86.7534 408.184 83.8215 410.761 79.6986C410.913 79.4283 411.162 79.2624 411.465 79.2183C411.758 79.1665 412.044 79.2249 412.293 79.3969L412.3 79.4023L412.308 79.408C412.414 79.4877 412.524 79.611 412.571 79.7872C412.616 79.9539 412.588 80.108 412.539 80.2287C409.13 89.8582 402.742 96.5659 393.395 100.32L389.076 95.2153Z" stroke="#657ED4" stroke-opacity="0.37"/>
<path d="M296.36 97.904C293.309 94.8 291.496 91.5093 290.92 88.032C290.259 83.968 289.427 79.8667 288.424 75.728C288.019 74.032 288.36 73.8667 289.448 75.232C293.096 79.7973 295.784 85.1254 297.512 91.216C298.6 95.056 300.632 98.7574 303.608 102.32C304.184 103.003 304.045 103.221 303.192 102.976C300.941 102.304 298.611 101.835 296.2 101.568C284.776 100.32 275.928 93.184 271.784 82.416C271.069 80.5387 271.336 80.384 272.584 81.952C275.016 85.008 278.056 87.776 281.592 89.472C286.456 91.7974 291.309 94.688 296.152 98.144C297.155 98.8587 297.224 98.7787 296.36 97.904Z" fill="#657ED4"/>
<path d="M289.839 74.9199C293.531 79.5414 296.248 84.9303 297.993 91.0796L297.993 91.0797C299.059 94.8417 301.053 98.4814 303.991 101.999C304.144 102.18 304.274 102.359 304.356 102.527C304.419 102.656 304.546 102.968 304.358 103.264C304.168 103.563 303.829 103.577 303.684 103.573C303.497 103.568 303.281 103.522 303.054 103.457L303.049 103.455L303.049 103.455C300.828 102.792 298.527 102.329 296.145 102.065C284.526 100.796 275.525 93.5288 271.317 82.5956L271.317 82.5939C271.136 82.1186 271.008 81.7294 270.944 81.4387C270.912 81.297 270.889 81.1486 270.894 81.0126C270.898 80.916 270.921 80.6196 271.197 80.4595C271.476 80.298 271.745 80.4284 271.831 80.4746C271.951 80.5394 272.067 80.6348 272.173 80.7334C272.39 80.936 272.659 81.2437 272.975 81.6406L272.975 81.6407C275.375 84.6569 278.359 87.367 281.808 89.0211C285.924 90.9887 290.029 93.3575 294.125 96.1265L289.839 74.9199ZM289.839 74.9199C289.839 74.92 289.839 74.9202 289.839 74.9204L289.448 75.2317L289.839 74.9199Z" stroke="#657ED4" stroke-opacity="0.37"/>
<path d="M373.096 105.136C378.632 104.613 384.157 103.995 389.672 103.28C393.784 102.752 397.096 100.72 400.152 98.032C400.198 97.9964 400.255 97.9775 400.313 97.9786C400.371 97.9797 400.428 98.0006 400.472 98.0379C400.517 98.0752 400.548 98.1267 400.559 98.1838C400.571 98.2409 400.563 98.3002 400.536 98.352C394.488 108.144 383.368 112.608 372.152 109.552C369.283 108.773 366.163 108.08 362.792 107.472C360.456 107.045 360.403 106.421 362.632 105.6C370.68 102.64 376.472 95.056 383.288 89.616C384.056 88.9974 384.259 89.152 383.896 90.08C382.275 94.24 380.2 98.0267 377.672 101.44C376.408 103.152 374.76 103.728 372.952 104.608C371.992 105.067 372.04 105.243 373.096 105.136Z" fill="#657ED4"/>
<path d="M384.362 90.2616C382.725 94.4605 380.63 98.2864 378.074 101.737C377.014 103.173 375.683 103.873 374.318 104.517L384.362 90.2616ZM384.362 90.2616C384.362 90.2617 384.362 90.2618 384.362 90.262L383.896 90.08L384.362 90.2616ZM372.152 109.552L372.021 110.035C372.021 110.035 372.021 110.035 372.021 110.034C369.167 109.26 366.062 108.57 362.703 107.964L362.702 107.964C362.106 107.855 361.619 107.728 361.267 107.573C361.091 107.495 360.922 107.4 360.788 107.277C360.651 107.15 360.522 106.968 360.502 106.727C360.481 106.486 360.577 106.284 360.69 106.136C360.802 105.991 360.951 105.869 361.111 105.763C361.432 105.55 361.89 105.341 362.459 105.131L362.459 105.131C366.393 103.684 369.797 101.099 373.089 98.1647C374.287 97.0971 375.478 95.9758 376.674 94.8493C378.736 92.9081 380.814 90.9513 382.975 89.2259L373.096 105.136C378.632 104.613 384.157 103.995 389.672 103.28C393.784 102.752 397.096 100.72 400.152 98.032C400.198 97.9964 400.255 97.9775 400.313 97.9786C400.371 97.9797 400.428 98.0006 400.472 98.0379C400.517 98.0752 400.548 98.1267 400.559 98.1838C400.571 98.2409 400.563 98.3002 400.536 98.352C394.488 108.144 383.368 112.608 372.152 109.552ZM372.152 109.552C369.283 108.773 366.163 108.08 362.792 107.472M372.152 109.552L362.792 107.472M362.792 107.472C360.456 107.045 360.403 106.421 362.632 105.6C368.142 103.573 372.595 99.3794 377.042 95.1898C379.091 93.2602 381.139 91.3315 383.288 89.616L362.792 107.472Z" stroke="#657ED4" stroke-opacity="0.37"/>
<path d="M310.44 104.992C304.232 102.336 301.832 95.9841 299.048 90.4481C298.557 89.4774 298.755 89.3067 299.64 89.9361C303.171 92.4427 306.403 95.3067 309.336 98.5281C313.208 102.784 317.16 104.656 322.488 106.144C323.704 106.496 323.709 106.859 322.504 107.232C308.392 111.616 293.944 114.192 283.8 100.832C282.275 98.8161 282.504 98.5921 284.488 100.16C286.92 102.091 289.459 103.264 292.104 103.68C297.448 104.512 303.512 105.136 310.296 105.552C311.437 105.627 311.485 105.44 310.44 104.992Z" fill="#657ED4"/>
<path d="M303.043 99.0755C304.615 101.457 306.558 103.578 309.259 104.985C302.917 104.571 297.225 103.971 292.182 103.186C289.634 102.785 287.174 101.654 284.799 99.7685L284.798 99.7678C284.298 99.3726 283.892 99.0771 283.589 98.8927C283.44 98.8026 283.292 98.7238 283.155 98.678C283.088 98.6555 282.996 98.6311 282.892 98.6311C282.786 98.6311 282.618 98.6579 282.479 98.7944C282.339 98.9309 282.308 99.0978 282.306 99.2039C282.304 99.3079 282.326 99.4011 282.347 99.4688C282.39 99.6062 282.465 99.7563 282.552 99.9065C282.73 100.214 283.017 100.626 283.401 101.134L283.402 101.134C288.567 107.938 294.852 110.697 301.628 111.185C308.373 111.67 315.59 109.904 322.652 107.71C322.967 107.612 323.24 107.505 323.443 107.38C323.607 107.279 323.91 107.056 323.904 106.673C323.898 106.292 323.592 106.076 323.426 105.979C323.22 105.858 322.945 105.756 322.627 105.664L322.623 105.662C317.352 104.191 313.495 102.356 309.706 98.1916L309.706 98.1914C306.749 94.9438 303.49 92.0559 299.93 89.5284C299.699 89.3646 299.486 89.2323 299.3 89.1537C299.209 89.1148 299.096 89.0768 298.974 89.0671C298.851 89.0574 298.663 89.0738 298.501 89.2139C298.339 89.3538 298.296 89.5371 298.288 89.6595C298.279 89.7809 298.3 89.8981 298.325 89.9945C298.375 90.1899 298.474 90.4207 298.602 90.6732C298.935 91.3359 299.265 92.0156 299.599 92.7028C300.642 94.8508 301.72 97.072 303.043 99.0755Z" stroke="#657ED4" stroke-opacity="0.37"/>
<path d="M336.36 108.976C332.467 109.648 328.861 111.216 325.544 113.68C315.539 121.115 306.056 120.971 297.096 113.248C295.613 111.968 295.784 111.675 297.608 112.368C304.728 115.088 311.112 114.208 317.688 110.96C324.728 107.472 331.816 106.213 338.952 107.184C341.096 107.483 343.293 107.381 345.544 106.88C353.528 105.12 360.856 108.528 368.104 111.68C373.496 114.032 380.472 113.76 385.928 111.568C388.306 110.619 388.536 110.992 386.616 112.688C380.28 118.288 373.069 119.872 364.984 117.44C358.504 115.472 353.752 108.784 346.76 108.816C345.747 108.816 345.688 109.051 346.584 109.52C351.512 112.069 356.184 115.445 360.6 119.648C361.357 120.363 361.363 121.088 360.616 121.824L360.248 122.176C359.448 122.955 358.621 122.987 357.768 122.272L344.84 111.28C344.261 110.786 343.55 110.473 342.796 110.379C342.043 110.286 341.279 110.415 340.6 110.752C334.792 113.6 330.312 117.872 325.912 122.528C325.219 123.264 324.477 123.312 323.688 122.672L322.344 121.6C321.757 121.131 321.741 120.64 322.296 120.128C326.605 116.171 331.4 112.757 336.68 109.888C338.408 108.949 338.301 108.645 336.36 108.976Z" fill="#657ED4"/>
<path d="M296.769 113.627L296.769 113.627C296.393 113.302 296.101 113.022 295.91 112.793C295.817 112.681 295.727 112.558 295.669 112.429C295.621 112.322 295.532 112.07 295.68 111.817C295.829 111.56 296.094 111.515 296.214 111.506C296.355 111.495 296.506 111.514 296.648 111.543C296.939 111.601 297.323 111.725 297.786 111.901L297.786 111.901C304.751 114.562 310.988 113.711 317.466 110.512C317.466 110.512 317.466 110.512 317.466 110.512L317.688 110.96L296.769 113.627ZM296.769 113.627C301.316 117.545 306.035 119.574 310.92 119.648C315.802 119.722 320.779 117.844 325.842 114.081C329.082 111.675 332.595 110.143 336.385 109.479M296.769 113.627L336.385 109.479M364.84 117.919L364.839 117.918C362.056 117.073 359.579 115.379 357.191 113.746C356.72 113.424 356.252 113.104 355.787 112.794C353.074 110.986 350.398 109.471 347.293 109.327C352.09 111.869 356.64 115.19 360.944 119.285M364.84 117.919L360.6 119.648M364.84 117.919C373.091 120.401 380.482 118.777 386.947 113.063L364.84 117.919ZM360.944 119.285C360.944 119.285 360.944 119.286 360.945 119.286L360.6 119.648M360.944 119.285C360.943 119.285 360.943 119.285 360.943 119.284L360.6 119.648M360.944 119.285C361.377 119.695 361.668 120.175 361.672 120.724C361.676 121.273 361.393 121.76 360.967 122.18L360.961 122.185L360.597 122.534L360.248 122.176M360.6 119.648C361.357 120.363 361.363 121.088 360.616 121.824L360.248 122.176M360.248 122.176L360.593 122.537L360.595 122.536M360.248 122.176C359.448 122.955 358.621 122.987 357.768 122.272L344.84 111.28C344.261 110.786 343.55 110.473 342.796 110.379C342.043 110.286 341.279 110.415 340.6 110.752C334.792 113.6 330.312 117.872 325.912 122.528C325.219 123.264 324.477 123.312 323.688 122.672L322.344 121.6C321.757 121.131 321.741 120.64 322.296 120.128C326.605 116.171 331.4 112.757 336.68 109.888C337.071 109.676 337.368 109.496 337.571 109.348L360.595 122.536M360.595 122.536C360.138 122.98 359.621 123.261 359.047 123.284C358.472 123.306 357.935 123.064 357.447 122.655L357.444 122.653L344.516 111.661L344.516 111.661C344.011 111.23 343.391 110.957 342.735 110.876C342.078 110.794 341.413 110.907 340.822 111.2L340.82 111.201C335.097 114.007 330.668 118.223 326.275 122.871C325.874 123.297 325.405 123.58 324.868 123.615C324.333 123.65 323.83 123.431 323.375 123.062C323.374 123.061 323.373 123.061 323.373 123.06L322.032 121.991L322.031 121.99C321.685 121.713 321.407 121.351 321.392 120.896C321.377 120.443 321.63 120.062 321.957 119.761L321.958 119.76C326.283 115.788 331.092 112.361 336.385 109.479M360.595 122.536L336.385 109.479M368.104 111.68C373.496 114.032 380.472 113.76 385.928 111.568L338.952 107.184C341.096 107.483 343.293 107.381 345.544 106.88C353.217 105.189 360.284 108.27 367.256 111.311C367.539 111.434 367.821 111.557 368.104 111.68Z" stroke="#657ED4" stroke-opacity="0.37"/>
<path d="M248.216 114.512H34.68C34.247 114.512 33.896 114.863 33.896 115.296V115.456C33.896 115.889 34.247 116.24 34.68 116.24H248.216C248.649 116.24 249 115.889 249 115.456V115.296C249 114.863 248.649 114.512 248.216 114.512Z" fill="#FFFAED"/>
<path d="M649 114.512H435.56C435.092 114.512 434.712 114.892 434.712 115.36V115.392C434.712 115.86 435.092 116.24 435.56 116.24H649C649.468 116.24 649.848 115.86 649.848 115.392V115.36C649.848 114.892 649.468 114.512 649 114.512Z" fill="#FFFAED"/>
</svg>
