<svg width="153" height="124" viewBox="0 0 153 124" fill="none" xmlns="http://www.w3.org/2000/svg">
<path d="M18.1271 19.7602C20.4791 10.6242 24.7511 4.24022 34.3991 1.45622C35.8711 1.02955 36.0684 1.36024 34.9911 2.44824C33.0924 4.36824 31.3857 6.48022 29.8711 8.78422C26.9804 13.1789 23.2844 16.9869 18.7831 20.2082C18.1644 20.6562 17.9458 20.5069 18.1271 19.7602Z" fill="#657ED4"/>
<path d="M17.6428 19.6356L17.6429 19.6356C18.8291 15.0276 20.5102 11.07 23.1427 7.9064C25.7815 4.73538 29.3509 2.39255 34.2602 0.975902L17.6428 19.6356ZM17.6428 19.6356L17.6412 19.6422M17.6428 19.6356L17.6412 19.6422M17.6412 19.6422C17.5915 19.8469 17.559 20.0487 17.5665 20.229C17.5733 20.3911 17.6193 20.6718 17.8731 20.8451C18.1289 21.0198 18.4083 20.958 18.5621 20.9032C18.7318 20.8426 18.9058 20.7366 19.0752 20.614C23.6234 17.3589 27.3629 13.5073 30.2888 9.05899L30.2889 9.05889M17.6412 19.6422L30.2889 9.05889M30.2889 9.05889C31.7857 6.78203 33.4715 4.69598 35.3464 2.80004M30.2889 9.05889L35.3464 2.80004M35.3464 2.80004C35.6241 2.51954 35.8451 2.26325 35.985 2.03779M35.3464 2.80004L35.985 2.03779M35.985 2.03779C36.0544 1.92587 36.1198 1.79652 36.1522 1.65735M35.985 2.03779L36.1522 1.65735M36.1522 1.65735C36.1853 1.51565 36.1935 1.31754 36.0804 1.12801M36.1522 1.65735L36.0804 1.12801M36.0804 1.12801C35.9675 0.938663 35.7894 0.851836 35.6494 0.813488M36.0804 1.12801L35.6494 0.813488M35.6494 0.813488C35.5117 0.775775 35.367 0.771479 35.2354 0.779046M35.6494 0.813488L35.2354 0.779046M35.2354 0.779046C34.9705 0.794278 34.6397 0.865913 34.2605 0.975819L35.2354 0.779046Z" stroke="#657ED4" stroke-opacity="0.37"/>
<path d="M133.023 18.8642C133.268 19.9522 132.975 20.1176 132.143 19.3602C128.655 16.1762 124.767 13.2162 122.111 9.40824C120.276 6.77357 118.234 4.24024 115.983 1.80824C115.3 1.06157 115.444 0.83225 116.415 1.12025C125.492 3.76558 131.028 9.68025 133.023 18.8642Z" fill="#657ED4"/>
<path d="M131.806 19.7295L131.807 19.73C132.026 19.9296 132.237 20.0944 132.433 20.1977C132.596 20.2835 132.919 20.4167 133.233 20.2398C133.551 20.0603 133.599 19.7109 133.606 19.5264C133.614 19.3057 133.576 19.0424 133.511 18.7562C132.498 14.0911 130.579 10.2313 127.74 7.19857C124.902 4.16577 121.166 1.9841 116.556 0.640552C116.301 0.565034 116.066 0.51236 115.868 0.501939C115.77 0.496742 115.652 0.500235 115.535 0.533662C115.414 0.568119 115.259 0.645475 115.156 0.810334C115.052 0.975323 115.05 1.14844 115.071 1.27253C115.092 1.39278 115.141 1.50029 115.188 1.58684C115.284 1.76063 115.435 1.94934 115.614 2.14562L115.614 2.14563L115.616 2.14785C117.852 4.56345 119.88 7.07884 121.701 9.69397L121.701 9.69428C123.786 12.6831 126.627 15.1687 129.398 17.593C130.214 18.3067 131.023 19.0151 131.806 19.7295Z" stroke="#657ED4" stroke-opacity="0.37"/>
<path d="M136.159 23.8882C135.151 20.0482 133.647 12.2242 131.071 9.64824C128.917 7.48291 129.189 7.12023 131.887 8.56023C142.111 14.0162 140.095 24.2242 140.383 34.0002C140.405 34.8642 140.122 34.9762 139.535 34.3362C136.122 30.5709 132.431 27.0936 128.463 23.9042C125.391 21.4402 123.226 18.0269 121.967 13.6642C121.679 12.6616 121.887 12.5496 122.591 13.3282C126.463 17.6002 131.231 20.5122 135.439 24.3362C136.175 25.0082 136.415 24.8589 136.159 23.8882Z" fill="#657ED4"/>
<path d="M135.12 21.7737C135.301 22.5228 135.469 23.219 135.628 23.8329C133.991 22.3581 132.272 21.0136 130.57 19.6835C130.111 19.3247 129.654 18.9669 129.199 18.6079C127.002 16.8714 124.869 15.0964 122.962 12.9925C122.779 12.7903 122.607 12.6213 122.451 12.5076C122.375 12.4517 122.278 12.3907 122.167 12.3536C122.057 12.3172 121.866 12.2827 121.67 12.388C121.473 12.4944 121.396 12.6757 121.368 12.7902C121.339 12.9054 121.339 13.0209 121.345 13.115C121.359 13.3069 121.412 13.5416 121.487 13.8023L121.487 13.8028C122.769 18.2487 124.986 21.7559 128.15 24.2939C132.098 27.4669 135.769 30.9262 139.165 34.672L139.167 34.6741C139.326 34.848 139.491 35.0007 139.659 35.1026C139.812 35.1959 140.08 35.3126 140.371 35.1971C140.665 35.0809 140.779 34.8109 140.825 34.6366C140.876 34.447 140.889 34.2229 140.883 33.9879L140.883 33.9855C140.838 32.4422 140.85 30.8994 140.862 29.3554C140.869 28.4594 140.876 27.563 140.872 26.6659C140.861 24.2412 140.766 21.8429 140.353 19.5708C139.522 14.9961 137.395 10.9329 132.123 8.11911L132.123 8.1191C131.443 7.75622 130.894 7.49529 130.489 7.34818C130.29 7.27595 130.096 7.22037 129.925 7.20322C129.798 7.19056 129.467 7.17502 129.259 7.45223C129.05 7.73088 129.16 8.04527 129.209 8.16299C129.274 8.32218 129.383 8.49135 129.509 8.66088C129.766 9.00627 130.174 9.45525 130.717 10.0009L130.718 10.0018C131.298 10.5823 131.845 11.4897 132.355 12.6248C132.862 13.7526 133.315 15.0689 133.724 16.4374C134.27 18.2648 134.725 20.1444 135.12 21.7737Z" stroke="#657ED4" stroke-opacity="0.37"/>
<path d="M15.2632 26.3842C16.0952 25.0882 16.8312 23.5042 18.1592 22.6402C21.9565 20.1869 25.3112 17.4509 28.2232 14.4322C28.8525 13.7816 29.0659 13.8989 28.8632 14.7842C27.3272 21.3282 21.3912 26.5122 16.1752 30.5602C14.4579 31.8936 13.0605 33.5362 11.9832 35.4882C11.5459 36.2669 11.3165 36.2082 11.2952 35.3122C11.1779 31.6856 11.0765 28.0376 10.9912 24.3682C10.8312 17.8722 14.2552 10.6882 20.7032 8.46423C21.5672 8.16556 21.7165 8.37888 21.1512 9.10422C17.0712 14.2722 16.3512 19.9202 14.7672 26.1762C14.5005 27.2215 14.6659 27.2909 15.2632 26.3842Z" fill="#657ED4"/>
<path d="M20.5402 7.99155C13.8207 10.3092 10.328 17.7451 10.4913 24.3802C10.5767 28.0502 10.6781 31.6989 10.7954 35.3263C10.8011 35.5623 10.8206 35.779 10.8666 35.9542C10.8895 36.0416 10.9259 36.1461 10.99 36.2429C11.0558 36.3424 11.1731 36.465 11.3593 36.5126C11.5461 36.5604 11.7085 36.5088 11.815 36.4517C11.918 36.3966 11.9997 36.3212 12.0611 36.2549C12.1845 36.1217 12.3035 35.9389 12.4192 35.7331L12.4209 35.7298C13.4663 33.8358 14.8195 32.2458 16.4818 30.9552C19.0956 28.9267 21.9134 26.5959 24.273 23.9403C26.6322 21.2852 28.5562 18.2804 29.35 14.8985L29.3506 14.8958C29.4042 14.6617 29.4391 14.4432 29.4372 14.2589C29.4362 14.1671 29.4261 14.0559 29.3871 13.9456C29.3469 13.8319 29.263 13.6859 29.0962 13.5941C28.9288 13.5021 28.7598 13.5096 28.6412 13.5375C28.5266 13.5645 28.4273 13.6167 28.3498 13.6657C28.1942 13.7642 28.0303 13.9125 27.8638 14.0846L27.8634 14.0851C24.9799 17.0741 21.6555 19.7861 17.8879 22.2202L17.8865 22.2211C17.1425 22.7052 16.5822 23.379 16.1121 24.0686C15.9341 24.3297 15.7663 24.5973 15.6055 24.8613C15.7496 24.2607 15.8882 23.6676 16.0251 23.0816C17.1939 18.0792 18.2411 13.5972 21.5437 9.41404L21.5456 9.41159C21.6956 9.21911 21.8216 9.03188 21.8983 8.85881C21.9559 8.72893 22.0774 8.40572 21.8728 8.11349C21.6658 7.81768 21.3171 7.82604 21.1753 7.83799C20.9868 7.85386 20.7694 7.91231 20.5402 7.99155ZM20.5402 7.99155L20.7032 8.46423L20.5399 7.99166C20.54 7.99163 20.5401 7.99159 20.5402 7.99155Z" stroke="#657ED4" stroke-opacity="0.37"/>
<mask id="path-9-outside-1_19_138" maskUnits="userSpaceOnUse" x="40.4448" y="9.75592" width="72" height="78" fill="black">
<rect fill="white" x="40.4448" y="9.75592" width="72" height="78"/>
<path d="M75.0551 22.6082C74.9911 21.0082 74.2765 19.6909 72.9111 18.6562C71.8871 17.8776 71.6151 16.8856 72.0951 15.6802C72.7138 14.1229 73.8178 12.6189 75.4071 11.1683C76.0365 10.6029 76.6551 10.6189 77.2631 11.2162C80.3991 14.3362 82.5591 17.5043 77.8071 20.8162C76.9965 21.3709 76.9058 22.0269 77.5351 22.7842L77.8391 23.1362C77.9546 23.275 78.1199 23.3628 78.2995 23.3807C78.4791 23.3987 78.6585 23.3453 78.7991 23.2322C87.1991 16.3682 92.4791 27.5042 100.319 27.0082C101.055 26.9549 101.418 26.5603 101.407 25.8243L101.391 23.5362C101.391 23.396 101.423 23.2576 101.486 23.1319C101.548 23.0062 101.638 22.8965 101.75 22.8114C101.861 22.7262 101.991 22.6679 102.128 22.641C102.266 22.6141 102.408 22.6193 102.543 22.6562L103.119 22.8163C103.452 22.9057 103.75 23.0945 103.973 23.3574C104.196 23.6204 104.333 23.9451 104.367 24.2882C104.676 27.4989 103.231 29.6589 100.031 30.7683C99.2311 31.0456 99.0018 31.5736 99.3431 32.3522L110.479 57.3122C110.703 57.8242 110.698 58.3416 110.463 58.8642C108.223 63.7442 105.935 68.0162 99.9831 68.9122C92.3778 70.0536 86.8631 66.7362 83.4391 58.9602C83.2045 58.4056 83.2311 57.8669 83.5191 57.3443C87.7005 49.7709 91.3165 41.1362 94.3671 31.4402C94.5698 30.8002 94.4312 30.2456 93.9512 29.7762C88.3672 24.3042 82.0311 26.5282 79.5351 33.2162C79.3431 33.7176 79.4232 34.1763 79.7752 34.5923C81.1192 36.2136 81.1298 37.8936 79.8071 39.6322C79.4551 40.0909 79.3538 40.5976 79.5032 41.1522C79.8872 42.6242 80.3191 43.5042 80.0951 45.1362C79.2098 51.5896 79.3485 56.8962 80.5111 61.0562C81.7591 65.5362 85.4071 68.1282 83.6951 73.3282C83.6083 73.5946 83.5951 73.8795 83.6571 74.1528C83.719 74.426 83.8538 74.6774 84.0471 74.8802L90.4632 81.4402C90.5589 81.5375 90.6291 81.6566 90.668 81.7875C90.707 81.9184 90.7133 82.0573 90.6866 82.1923C90.66 82.3274 90.601 82.4546 90.5147 82.5632C90.4285 82.6718 90.3175 82.7586 90.1911 82.8162C81.0178 87.0082 71.6738 86.9176 62.1591 82.5443C61.6365 82.2989 61.5778 81.9736 61.9831 81.5682L68.4791 74.9922C68.6895 74.7764 68.8413 74.5115 68.9198 74.2229C68.9982 73.9343 69.0008 73.6317 68.9272 73.3443L68.3191 70.9602C68.1911 70.4269 68.2391 69.9149 68.4631 69.4243C71.6631 62.4323 74.0631 57.0562 72.8791 49.0882C72.4631 46.3042 72.5325 43.5736 73.0871 40.8963C73.1276 40.6892 73.1244 40.4756 73.0775 40.269C73.0307 40.0624 72.9414 39.8674 72.8151 39.6963C71.4925 37.8616 71.4871 36.0802 72.7991 34.3522C73.1511 33.8936 73.2151 33.3976 72.9911 32.8642C69.9511 25.7762 63.6632 24.5602 58.3032 30.3522C57.9618 30.7256 57.8978 31.1416 58.1111 31.6003C58.6871 32.8376 59.1831 34.1229 59.5991 35.4562C62.1698 43.7336 65.3805 51.1522 69.2311 57.7122C69.5191 58.1922 69.5138 58.6669 69.2151 59.1362C67.2205 62.3789 65.8178 64.3629 65.0071 65.0882C60.4631 69.2376 55.4871 70.2989 50.0791 68.2723C45.5831 66.5763 44.1911 62.4003 41.7431 58.7683C41.3805 58.2349 41.3485 57.6909 41.6471 57.1362C45.8605 49.1576 49.6311 40.9976 52.9591 32.6562C53.3111 31.7709 53.0551 31.1309 52.1911 30.7362C49.6311 29.5682 46.7351 26.0323 48.7991 23.2163C48.969 22.9874 49.2056 22.8169 49.4765 22.7284C49.7473 22.6398 50.039 22.6375 50.3112 22.7218C50.5834 22.8061 50.8227 22.9728 50.9961 23.199C51.1695 23.4251 51.2684 23.6995 51.2791 23.9842L51.3111 24.8802C51.321 25.2699 51.4282 25.6509 51.623 25.9886C51.8178 26.3262 52.094 26.6098 52.4264 26.8134C52.7588 27.017 53.1369 27.1341 53.5262 27.1542C53.9154 27.1743 54.3035 27.0966 54.6551 26.9282L66.9272 21.0882C67.1583 20.9832 67.405 20.9338 67.6471 20.9443C69.9725 21.1149 72.0951 21.8616 74.0151 23.1842C74.7511 23.6962 75.0978 23.5042 75.0551 22.6082ZM86.5911 56.9602C86.5598 57.0406 86.5486 57.1274 86.5585 57.2131C86.5685 57.2988 86.5992 57.3808 86.6482 57.4518C86.6971 57.5228 86.7627 57.5808 86.8392 57.6206C86.9158 57.6605 87.0009 57.6809 87.0871 57.6802L107.711 57.1842C107.8 57.1846 107.888 57.1624 107.966 57.1197C108.044 57.0771 108.11 57.0154 108.158 56.9403C108.206 56.8653 108.234 56.7794 108.24 56.6905C108.246 56.6017 108.229 56.5129 108.191 56.4322L97.2632 31.7443C97.2202 31.6489 97.1498 31.5684 97.061 31.513C96.9722 31.4577 96.869 31.43 96.7644 31.4334C96.6599 31.4368 96.5586 31.4712 96.4737 31.5323C96.3887 31.5933 96.3238 31.6782 96.2871 31.7762L86.5911 56.9602ZM52.8311 37.4403C50.0791 44.0002 47.2098 50.2936 44.2231 56.3203C44.1827 56.4026 44.1637 56.4938 44.1679 56.5854C44.1721 56.6771 44.1995 56.7661 44.2474 56.8444C44.2953 56.9226 44.3622 56.9874 44.4419 57.0329C44.5215 57.0783 44.6114 57.1029 44.7032 57.1042L65.8071 57.6322C66.4365 57.6429 66.6178 57.3602 66.3512 56.7842C62.7885 49.1576 59.6845 41.1682 57.0391 32.8162C56.9005 32.3789 56.6658 32.0002 56.3351 31.6802C55.9725 31.3496 55.5671 31.2536 55.1191 31.3923C54.6711 31.5416 54.4045 31.8456 54.3191 32.3042C53.9991 34.1069 53.5031 35.8189 52.8311 37.4403Z"/>
</mask>
<path d="M75.0551 22.6082C74.9911 21.0082 74.2765 19.6909 72.9111 18.6562C71.8871 17.8776 71.6151 16.8856 72.0951 15.6802C72.7138 14.1229 73.8178 12.6189 75.4071 11.1683C76.0365 10.6029 76.6551 10.6189 77.2631 11.2162C80.3991 14.3362 82.5591 17.5043 77.8071 20.8162C76.9965 21.3709 76.9058 22.0269 77.5351 22.7842L77.8391 23.1362C77.9546 23.275 78.1199 23.3628 78.2995 23.3807C78.4791 23.3987 78.6585 23.3453 78.7991 23.2322C87.1991 16.3682 92.4791 27.5042 100.319 27.0082C101.055 26.9549 101.418 26.5603 101.407 25.8243L101.391 23.5362C101.391 23.396 101.423 23.2576 101.486 23.1319C101.548 23.0062 101.638 22.8965 101.75 22.8114C101.861 22.7262 101.991 22.6679 102.128 22.641C102.266 22.6141 102.408 22.6193 102.543 22.6562L103.119 22.8163C103.452 22.9057 103.75 23.0945 103.973 23.3574C104.196 23.6204 104.333 23.9451 104.367 24.2882C104.676 27.4989 103.231 29.6589 100.031 30.7683C99.2311 31.0456 99.0018 31.5736 99.3431 32.3522L110.479 57.3122C110.703 57.8242 110.698 58.3416 110.463 58.8642C108.223 63.7442 105.935 68.0162 99.9831 68.9122C92.3778 70.0536 86.8631 66.7362 83.4391 58.9602C83.2045 58.4056 83.2311 57.8669 83.5191 57.3443C87.7005 49.7709 91.3165 41.1362 94.3671 31.4402C94.5698 30.8002 94.4312 30.2456 93.9512 29.7762C88.3672 24.3042 82.0311 26.5282 79.5351 33.2162C79.3431 33.7176 79.4232 34.1763 79.7752 34.5923C81.1192 36.2136 81.1298 37.8936 79.8071 39.6322C79.4551 40.0909 79.3538 40.5976 79.5032 41.1522C79.8872 42.6242 80.3191 43.5042 80.0951 45.1362C79.2098 51.5896 79.3485 56.8962 80.5111 61.0562C81.7591 65.5362 85.4071 68.1282 83.6951 73.3282C83.6083 73.5946 83.5951 73.8795 83.6571 74.1528C83.719 74.426 83.8538 74.6774 84.0471 74.8802L90.4632 81.4402C90.5589 81.5375 90.6291 81.6566 90.668 81.7875C90.707 81.9184 90.7133 82.0573 90.6866 82.1923C90.66 82.3274 90.601 82.4546 90.5147 82.5632C90.4285 82.6718 90.3175 82.7586 90.1911 82.8162C81.0178 87.0082 71.6738 86.9176 62.1591 82.5443C61.6365 82.2989 61.5778 81.9736 61.9831 81.5682L68.4791 74.9922C68.6895 74.7764 68.8413 74.5115 68.9198 74.2229C68.9982 73.9343 69.0008 73.6317 68.9272 73.3443L68.3191 70.9602C68.1911 70.4269 68.2391 69.9149 68.4631 69.4243C71.6631 62.4323 74.0631 57.0562 72.8791 49.0882C72.4631 46.3042 72.5325 43.5736 73.0871 40.8963C73.1276 40.6892 73.1244 40.4756 73.0775 40.269C73.0307 40.0624 72.9414 39.8674 72.8151 39.6963C71.4925 37.8616 71.4871 36.0802 72.7991 34.3522C73.1511 33.8936 73.2151 33.3976 72.9911 32.8642C69.9511 25.7762 63.6632 24.5602 58.3032 30.3522C57.9618 30.7256 57.8978 31.1416 58.1111 31.6003C58.6871 32.8376 59.1831 34.1229 59.5991 35.4562C62.1698 43.7336 65.3805 51.1522 69.2311 57.7122C69.5191 58.1922 69.5138 58.6669 69.2151 59.1362C67.2205 62.3789 65.8178 64.3629 65.0071 65.0882C60.4631 69.2376 55.4871 70.2989 50.0791 68.2723C45.5831 66.5763 44.1911 62.4003 41.7431 58.7683C41.3805 58.2349 41.3485 57.6909 41.6471 57.1362C45.8605 49.1576 49.6311 40.9976 52.9591 32.6562C53.3111 31.7709 53.0551 31.1309 52.1911 30.7362C49.6311 29.5682 46.7351 26.0323 48.7991 23.2163C48.969 22.9874 49.2056 22.8169 49.4765 22.7284C49.7473 22.6398 50.039 22.6375 50.3112 22.7218C50.5834 22.8061 50.8227 22.9728 50.9961 23.199C51.1695 23.4251 51.2684 23.6995 51.2791 23.9842L51.3111 24.8802C51.321 25.2699 51.4282 25.6509 51.623 25.9886C51.8178 26.3262 52.094 26.6098 52.4264 26.8134C52.7588 27.017 53.1369 27.1341 53.5262 27.1542C53.9154 27.1743 54.3035 27.0966 54.6551 26.9282L66.9272 21.0882C67.1583 20.9832 67.405 20.9338 67.6471 20.9443C69.9725 21.1149 72.0951 21.8616 74.0151 23.1842C74.7511 23.6962 75.0978 23.5042 75.0551 22.6082ZM86.5911 56.9602C86.5598 57.0406 86.5486 57.1274 86.5585 57.2131C86.5685 57.2988 86.5992 57.3808 86.6482 57.4518C86.6971 57.5228 86.7627 57.5808 86.8392 57.6206C86.9158 57.6605 87.0009 57.6809 87.0871 57.6802L107.711 57.1842C107.8 57.1846 107.888 57.1624 107.966 57.1197C108.044 57.0771 108.11 57.0154 108.158 56.9403C108.206 56.8653 108.234 56.7794 108.24 56.6905C108.246 56.6017 108.229 56.5129 108.191 56.4322L97.2632 31.7443C97.2202 31.6489 97.1498 31.5684 97.061 31.513C96.9722 31.4577 96.869 31.43 96.7644 31.4334C96.6599 31.4368 96.5586 31.4712 96.4737 31.5323C96.3887 31.5933 96.3238 31.6782 96.2871 31.7762L86.5911 56.9602ZM52.8311 37.4403C50.0791 44.0002 47.2098 50.2936 44.2231 56.3203C44.1827 56.4026 44.1637 56.4938 44.1679 56.5854C44.1721 56.6771 44.1995 56.7661 44.2474 56.8444C44.2953 56.9226 44.3622 56.9874 44.4419 57.0329C44.5215 57.0783 44.6114 57.1029 44.7032 57.1042L65.8071 57.6322C66.4365 57.6429 66.6178 57.3602 66.3512 56.7842C62.7885 49.1576 59.6845 41.1682 57.0391 32.8162C56.9005 32.3789 56.6658 32.0002 56.3351 31.6802C55.9725 31.3496 55.5671 31.2536 55.1191 31.3923C54.6711 31.5416 54.4045 31.8456 54.3191 32.3042C53.9991 34.1069 53.5031 35.8189 52.8311 37.4403Z" fill="#657ED4"/>
<path d="M75.0551 22.6082C74.9911 21.0082 74.2765 19.6909 72.9111 18.6562C71.8871 17.8776 71.6151 16.8856 72.0951 15.6802C72.7138 14.1229 73.8178 12.6189 75.4071 11.1683C76.0365 10.6029 76.6551 10.6189 77.2631 11.2162C80.3991 14.3362 82.5591 17.5043 77.8071 20.8162C76.9965 21.3709 76.9058 22.0269 77.5351 22.7842L77.8391 23.1362C77.9546 23.275 78.1199 23.3628 78.2995 23.3807C78.4791 23.3987 78.6585 23.3453 78.7991 23.2322C87.1991 16.3682 92.4791 27.5042 100.319 27.0082C101.055 26.9549 101.418 26.5603 101.407 25.8243L101.391 23.5362C101.391 23.396 101.423 23.2576 101.486 23.1319C101.548 23.0062 101.638 22.8965 101.75 22.8114C101.861 22.7262 101.991 22.6679 102.128 22.641C102.266 22.6141 102.408 22.6193 102.543 22.6562L103.119 22.8163C103.452 22.9057 103.75 23.0945 103.973 23.3574C104.196 23.6204 104.333 23.9451 104.367 24.2882C104.676 27.4989 103.231 29.6589 100.031 30.7683C99.2311 31.0456 99.0018 31.5736 99.3431 32.3522L110.479 57.3122C110.703 57.8242 110.698 58.3416 110.463 58.8642C108.223 63.7442 105.935 68.0162 99.9831 68.9122C92.3778 70.0536 86.8631 66.7362 83.4391 58.9602C83.2045 58.4056 83.2311 57.8669 83.5191 57.3443C87.7005 49.7709 91.3165 41.1362 94.3671 31.4402C94.5698 30.8002 94.4312 30.2456 93.9512 29.7762C88.3672 24.3042 82.0311 26.5282 79.5351 33.2162C79.3431 33.7176 79.4232 34.1763 79.7752 34.5923C81.1192 36.2136 81.1298 37.8936 79.8071 39.6322C79.4551 40.0909 79.3538 40.5976 79.5032 41.1522C79.8872 42.6242 80.3191 43.5042 80.0951 45.1362C79.2098 51.5896 79.3485 56.8962 80.5111 61.0562C81.7591 65.5362 85.4071 68.1282 83.6951 73.3282C83.6083 73.5946 83.5951 73.8795 83.6571 74.1528C83.719 74.426 83.8538 74.6774 84.0471 74.8802L90.4632 81.4402C90.5589 81.5375 90.6291 81.6566 90.668 81.7875C90.707 81.9184 90.7133 82.0573 90.6866 82.1923C90.66 82.3274 90.601 82.4546 90.5147 82.5632C90.4285 82.6718 90.3175 82.7586 90.1911 82.8162C81.0178 87.0082 71.6738 86.9176 62.1591 82.5443C61.6365 82.2989 61.5778 81.9736 61.9831 81.5682L68.4791 74.9922C68.6895 74.7764 68.8413 74.5115 68.9198 74.2229C68.9982 73.9343 69.0008 73.6317 68.9272 73.3443L68.3191 70.9602C68.1911 70.4269 68.2391 69.9149 68.4631 69.4243C71.6631 62.4323 74.0631 57.0562 72.8791 49.0882C72.4631 46.3042 72.5325 43.5736 73.0871 40.8963C73.1276 40.6892 73.1244 40.4756 73.0775 40.269C73.0307 40.0624 72.9414 39.8674 72.8151 39.6963C71.4925 37.8616 71.4871 36.0802 72.7991 34.3522C73.1511 33.8936 73.2151 33.3976 72.9911 32.8642C69.9511 25.7762 63.6632 24.5602 58.3032 30.3522C57.9618 30.7256 57.8978 31.1416 58.1111 31.6003C58.6871 32.8376 59.1831 34.1229 59.5991 35.4562C62.1698 43.7336 65.3805 51.1522 69.2311 57.7122C69.5191 58.1922 69.5138 58.6669 69.2151 59.1362C67.2205 62.3789 65.8178 64.3629 65.0071 65.0882C60.4631 69.2376 55.4871 70.2989 50.0791 68.2723C45.5831 66.5763 44.1911 62.4003 41.7431 58.7683C41.3805 58.2349 41.3485 57.6909 41.6471 57.1362C45.8605 49.1576 49.6311 40.9976 52.9591 32.6562C53.3111 31.7709 53.0551 31.1309 52.1911 30.7362C49.6311 29.5682 46.7351 26.0323 48.7991 23.2163C48.969 22.9874 49.2056 22.8169 49.4765 22.7284C49.7473 22.6398 50.039 22.6375 50.3112 22.7218C50.5834 22.8061 50.8227 22.9728 50.9961 23.199C51.1695 23.4251 51.2684 23.6995 51.2791 23.9842L51.3111 24.8802C51.321 25.2699 51.4282 25.6509 51.623 25.9886C51.8178 26.3262 52.094 26.6098 52.4264 26.8134C52.7588 27.017 53.1369 27.1341 53.5262 27.1542C53.9154 27.1743 54.3035 27.0966 54.6551 26.9282L66.9272 21.0882C67.1583 20.9832 67.405 20.9338 67.6471 20.9443C69.9725 21.1149 72.0951 21.8616 74.0151 23.1842C74.7511 23.6962 75.0978 23.5042 75.0551 22.6082ZM86.5911 56.9602C86.5598 57.0406 86.5486 57.1274 86.5585 57.2131C86.5685 57.2988 86.5992 57.3808 86.6482 57.4518C86.6971 57.5228 86.7627 57.5808 86.8392 57.6206C86.9158 57.6605 87.0009 57.6809 87.0871 57.6802L107.711 57.1842C107.8 57.1846 107.888 57.1624 107.966 57.1197C108.044 57.0771 108.11 57.0154 108.158 56.9403C108.206 56.8653 108.234 56.7794 108.24 56.6905C108.246 56.6017 108.229 56.5129 108.191 56.4322L97.2632 31.7443C97.2202 31.6489 97.1498 31.5684 97.061 31.513C96.9722 31.4577 96.869 31.43 96.7644 31.4334C96.6599 31.4368 96.5586 31.4712 96.4737 31.5323C96.3887 31.5933 96.3238 31.6782 96.2871 31.7762L86.5911 56.9602ZM52.8311 37.4403C50.0791 44.0002 47.2098 50.2936 44.2231 56.3203C44.1827 56.4026 44.1637 56.4938 44.1679 56.5854C44.1721 56.6771 44.1995 56.7661 44.2474 56.8444C44.2953 56.9226 44.3622 56.9874 44.4419 57.0329C44.5215 57.0783 44.6114 57.1029 44.7032 57.1042L65.8071 57.6322C66.4365 57.6429 66.6178 57.3602 66.3512 56.7842C62.7885 49.1576 59.6845 41.1682 57.0391 32.8162C56.9005 32.3789 56.6658 32.0002 56.3351 31.6802C55.9725 31.3496 55.5671 31.2536 55.1191 31.3923C54.6711 31.5416 54.4045 31.8456 54.3191 32.3042C53.9991 34.1069 53.5031 35.8189 52.8311 37.4403Z" stroke="#657ED4" stroke-opacity="0.37" stroke-width="2" mask="url(#path-9-outside-1_19_138)"/>
<path d="M141.839 40.4962C142.213 34.6615 142.335 28.3895 142.207 21.6802C142.197 21.0082 142.01 20.3895 141.647 19.8242C141.338 19.3442 141.162 18.8322 141.119 18.2882C141.055 17.4349 141.285 17.3495 141.807 18.0322C150.319 29.1682 147.263 40.1602 143.167 52.2722C142.89 53.0829 142.597 53.0882 142.287 52.2882C140.762 48.3842 138.357 44.3469 135.071 40.1762C132.255 36.6082 130.463 32.3202 128.959 28.0482C128.351 26.2882 128.687 26.0855 129.967 27.4402C134.063 31.7442 139.055 34.7682 141.183 40.5922C141.557 41.6162 141.775 41.5842 141.839 40.4962Z" fill="#657ED4"/>
<path d="M141.385 39.7368C140.269 37.0624 138.559 34.9813 136.666 33.0923C135.763 32.1911 134.812 31.3274 133.864 30.4663C133.737 30.3515 133.611 30.2368 133.485 30.1221C132.408 29.1428 131.34 28.1576 130.33 27.0961C130.004 26.7509 129.716 26.4816 129.474 26.3091C129.355 26.2241 129.221 26.1438 129.081 26.0979C128.945 26.0536 128.717 26.0152 128.497 26.1481C128.276 26.2812 128.204 26.5008 128.18 26.6419C128.156 26.7882 128.165 26.944 128.185 27.0889C128.226 27.3832 128.332 27.7625 128.487 28.2115L128.487 28.2115L128.488 28.2143C129.996 32.4975 131.809 36.8502 134.678 40.4856C137.941 44.6271 140.318 48.6218 141.821 52.4694C141.905 52.6861 142.001 52.8856 142.118 53.0393C142.223 53.178 142.43 53.3899 142.748 53.3841C143.067 53.3783 143.266 53.1586 143.366 53.0158C143.477 52.8575 143.565 52.6541 143.64 52.4341L143.641 52.4324C147.733 40.3324 150.892 29.0938 142.204 17.7286L142.204 17.7282C142.065 17.5463 141.923 17.3854 141.781 17.2727C141.676 17.1888 141.399 16.9928 141.069 17.1156C140.736 17.2396 140.657 17.5722 140.634 17.7055C140.602 17.884 140.604 18.0981 140.621 18.3256L140.621 18.3273C140.67 18.9575 140.875 19.5485 141.227 20.0945C141.539 20.5814 141.698 21.1092 141.707 21.6881L141.707 21.6897C141.83 28.109 141.722 34.1246 141.385 39.7368Z" stroke="#657ED4" stroke-opacity="0.37"/>
<path d="M10.3511 42.5442C12.3831 35.9522 16.3831 33.2002 20.8151 28.8802C22.1698 27.5682 22.5911 27.8189 22.0791 29.6322C21.0551 33.3282 19.4071 37.2162 17.0071 40.2242C13.7111 44.3202 11.2524 48.5656 9.6311 52.9602C9.36444 53.6856 9.10844 53.6856 8.86311 52.9602C4.79911 41.0082 0.799122 31.1522 9.15112 19.4722C9.30045 19.2696 9.49778 19.1469 9.74311 19.1042C9.87111 19.0722 10.0044 19.1042 10.1431 19.2002C10.2071 19.2429 10.2231 19.3016 10.1911 19.3762C9.13511 21.4456 8.67644 23.3762 8.81511 25.1682C9.27378 31.0029 9.62043 36.7736 9.8551 42.4802C9.8871 43.4936 10.0525 43.5149 10.3511 42.5442Z" fill="#657ED4"/>
<path d="M22.5606 29.7668C21.526 33.5008 19.8541 37.4576 17.3979 40.5361L17.3966 40.5377C14.1306 44.5965 11.7008 48.7949 10.1004 53.1328C10.0277 53.3306 9.9431 53.5157 9.83876 53.6605C9.74794 53.7866 9.55309 54.0042 9.23911 54.0042C8.92086 54.0042 8.72706 53.7817 8.63779 53.6525C8.5362 53.5055 8.4565 53.3186 8.3895 53.1205C8.19419 52.5461 7.99869 51.9757 7.80442 51.4089C5.9869 46.106 4.27798 41.12 3.85294 36.1569C3.37919 30.625 4.49658 25.1219 8.74441 19.1814L8.74855 19.1756L8.74859 19.1756C8.97014 18.875 9.27464 18.6823 9.64123 18.6145C9.93688 18.5473 10.2083 18.6381 10.4248 18.7871C10.5285 18.8574 10.6387 18.9729 10.6855 19.1447C10.7319 19.3146 10.6962 19.4669 10.6507 19.5732L10.6441 19.5886L10.6365 19.6035C9.61043 21.6141 9.18396 23.4523 9.31357 25.1291C9.73751 30.522 10.0659 35.8605 10.2987 41.1445L22.5606 29.7668ZM22.5606 29.7668C22.5605 29.7673 22.5604 29.7677 22.5603 29.7681L22.0792 29.6322L22.5609 29.7657C22.5608 29.7661 22.5607 29.7665 22.5606 29.7668Z" stroke="#657ED4" stroke-opacity="0.37"/>
<path d="M142.479 60.8002C143.343 59.1042 143.311 56.8322 144.143 55.0722C146.596 49.8882 148.202 44.6029 148.959 39.2162C149.269 37.0722 149.663 37.0562 150.143 39.1682C152.127 47.7762 150.863 57.6962 145.119 64.7042C143.156 67.0935 141.274 69.5949 139.471 72.2082C138.874 73.0722 138.591 72.9762 138.623 71.9202C138.703 69.2482 138.863 65.7922 138.015 63.3282C135.434 55.6802 133.845 48.5442 133.247 41.9202C133.141 40.8002 133.375 40.7256 133.951 41.6962C137.231 47.2002 142.239 54.1122 141.935 60.6562C141.892 61.5415 142.074 61.5896 142.479 60.8002Z" fill="#657ED4"/>
<path d="M139.471 72.2082C138.874 73.0722 138.591 72.9762 138.623 71.9202C138.627 71.7761 138.632 71.6298 138.637 71.4815C138.717 68.8784 138.817 65.6594 138.015 63.3282C135.434 55.6802 133.845 48.5442 133.247 41.9202L139.471 72.2082ZM139.471 72.2082C141.274 69.5949 143.156 67.0935 145.119 64.7042M139.471 72.2082L145.119 64.7042M132.749 41.9664C133.351 48.6364 134.95 55.8109 137.541 63.4881L137.542 63.4909C137.943 64.6541 138.112 66.0767 138.168 67.5648C138.217 68.8902 138.175 70.2368 138.137 71.4661C138.132 71.6142 138.128 71.7606 138.123 71.9051C138.123 71.9051 138.123 71.9052 138.123 71.9052L132.749 41.9664ZM132.749 41.9664C132.722 41.677 132.713 41.4228 132.734 41.223C132.745 41.1249 132.765 41.0082 132.814 40.8982C132.862 40.7905 132.971 40.6181 133.192 40.5478C133.411 40.4778 133.599 40.5548 133.699 40.6133C133.802 40.6736 133.888 40.7555 133.954 40.8288C134.089 40.9782 134.232 41.1896 134.381 41.4407C134.846 42.2207 135.35 43.0355 135.871 43.8778C137.167 45.9739 138.568 48.2401 139.734 50.5618C141.188 53.4583 142.315 56.5098 142.437 59.539C142.594 59.0177 142.712 58.4542 142.833 57.8603C142.84 57.8296 142.846 57.7987 142.852 57.7678C143.047 56.8088 143.258 55.7742 143.691 54.8585L143.691 54.8583C146.124 49.7175 147.714 44.4806 148.464 39.1466L148.464 39.1448C148.543 38.601 148.63 38.1639 148.732 37.8523C148.782 37.6995 148.844 37.5461 148.93 37.4205C149.006 37.309 149.177 37.1084 149.467 37.0966C149.757 37.0849 149.944 37.2711 150.028 37.3762C150.124 37.4945 150.199 37.6424 150.261 37.7907C150.387 38.093 150.509 38.5215 150.631 39.057L132.749 41.9664ZM145.119 64.7042C150.863 57.6962 152.127 47.7762 150.143 39.1682L145.119 64.7042Z" stroke="#657ED4" stroke-opacity="0.37"/>
<path d="M10.3671 63.1683C9.89776 60.2136 10.1218 57.5842 11.0391 55.2802C12.7991 50.8322 14.8204 46.6082 17.1031 42.6083C18.0951 40.8589 18.5164 40.9869 18.3671 42.9923C17.8764 49.6376 16.5324 56.2829 14.3351 62.9282C13.3911 65.7762 13.1351 69.4563 13.4231 72.4483C13.4978 73.2909 13.2257 73.4243 12.6071 72.8483C2.95375 63.8349 -0.678247 53.1042 1.71109 40.6562C2.09509 38.6616 2.42042 38.6669 2.68709 40.6723C3.00709 42.9923 3.1991 45.2643 4.0951 47.3923C6.10043 52.1816 8.07376 57.4669 10.0151 63.2483C10.0257 63.2949 10.0544 63.3355 10.0949 63.361C10.1354 63.3865 10.1844 63.3949 10.2311 63.3842C10.2778 63.3736 10.3183 63.3449 10.3438 63.3044C10.3693 63.2639 10.3777 63.2149 10.3671 63.1683Z" fill="#657ED4"/>
<path d="M10.5744 55.0958C9.90839 56.7687 9.59705 58.5964 9.63139 60.5731C7.96378 55.7552 6.27213 51.2971 4.5563 47.1991L4.55591 47.1982C3.81747 45.4444 3.57551 43.593 3.31742 41.6181C3.27375 41.284 3.22963 40.9464 3.18256 40.6051C3.11505 40.0977 3.04082 39.691 2.95573 39.402C2.91422 39.2611 2.86146 39.1172 2.78828 38.9982C2.73198 38.9066 2.56536 38.6695 2.25129 38.6643C1.9416 38.6592 1.76631 38.8854 1.70629 38.9728C1.62744 39.0875 1.5668 39.228 1.51713 39.3673C1.41538 39.6527 1.31738 40.0564 1.2201 40.5617L1.22005 40.562C-1.2033 53.1872 2.49327 64.089 12.2659 73.2137L12.2664 73.2142C12.4353 73.3715 12.6093 73.5084 12.7836 73.595C12.9454 73.6754 13.2176 73.7653 13.4952 73.6292C13.7724 73.4933 13.8684 73.2233 13.9042 73.0464C13.9427 72.8557 13.9415 72.6342 13.9212 72.4041L13.9208 72.4004C13.6378 69.4606 13.8924 65.853 14.8097 63.0856L14.8098 63.0852C17.0193 56.403 18.3719 49.7175 18.8657 43.0294C18.9038 42.5181 18.9085 42.0942 18.8681 41.777C18.8481 41.6204 18.8136 41.4585 18.7475 41.3169C18.6826 41.1779 18.5526 40.988 18.3084 40.9138C18.0643 40.8397 17.8507 40.9251 17.7195 41.0045C17.5857 41.0854 17.4669 41.2007 17.3632 41.3197C17.1532 41.5606 16.9214 41.9152 16.6686 42.3608C14.374 46.3818 12.3426 50.627 10.5744 55.0958ZM1.71109 40.6562C1.79968 40.1961 1.88515 39.8423 1.9675 39.595L12.6071 72.8483C2.95375 63.8349 -0.678247 53.1042 1.71109 40.6562Z" stroke="#657ED4" stroke-opacity="0.37"/>
<path d="M135.647 80.3202C139.221 75.4242 143.237 70.6402 147.695 65.9682C149.157 64.4216 150.127 62.3309 150.607 59.6962C150.661 59.4082 150.826 59.2216 151.103 59.1362C151.157 59.1256 151.21 59.1256 151.263 59.1362C151.381 59.1789 151.439 59.2589 151.439 59.3762C151.775 75.7922 141.103 81.7602 128.959 89.9682C128.159 90.5122 127.919 90.3256 128.239 89.4083C130.085 84.1389 131.173 77.8562 131.503 70.5602C131.706 66.3469 132.522 62.3149 133.951 58.4642C134.421 57.2056 134.698 57.2429 134.783 58.5762C135.327 66.0802 137.903 72.3043 135.231 80.1123C134.89 81.1043 135.029 81.1735 135.647 80.3202Z" fill="#657ED4"/>
<path d="M151.263 59.1362C151.381 59.1789 151.439 59.2589 151.439 59.3762M151.263 59.1362L131.503 70.5602C131.173 77.8562 130.085 84.1389 128.239 89.4083C127.919 90.3256 128.159 90.5122 128.959 89.9682C129.759 89.428 130.551 88.8974 131.335 88.3729C142.46 80.9293 151.753 74.7117 151.439 59.3762M151.263 59.1362C151.21 59.1256 151.157 59.1256 151.103 59.1362H151.263ZM151.439 59.3762H151.939C151.939 59.3742 151.939 59.3721 151.939 59.37C151.938 59.2268 151.9 59.0712 151.798 58.9326C151.697 58.7944 151.562 58.7127 151.434 58.6663L151.398 58.6534L151.361 58.6459C151.243 58.6223 151.123 58.6223 151.005 58.6459L150.98 58.6509L150.956 58.6583C150.744 58.7235 150.55 58.8361 150.397 59.0087C150.244 59.1812 150.156 59.3876 150.116 59.6052L150.115 59.6066C149.648 62.1701 148.712 64.164 147.333 65.624C143.236 69.9166 139.511 74.3047 136.157 78.7884C137.071 75.3778 137.045 72.2481 136.71 69.1761C136.549 67.6984 136.316 66.2267 136.082 64.7491C136.038 64.4768 135.995 64.2043 135.952 63.9315C135.677 62.1733 135.416 60.3953 135.282 58.5421C135.26 58.2004 135.224 57.91 135.167 57.6913C135.138 57.5841 135.097 57.4625 135.028 57.355C134.963 57.2518 134.822 57.0856 134.578 57.0527C134.336 57.0202 134.157 57.1407 134.068 57.2198C133.973 57.3033 133.899 57.4073 133.841 57.5024C133.722 57.6966 133.603 57.9661 133.483 58.2895L133.482 58.2902C132.035 62.1903 131.209 66.273 131.004 70.5362L131.004 70.5376C130.675 77.799 129.592 84.0312 127.767 89.243L127.767 89.2436C127.682 89.4882 127.62 89.7203 127.606 89.9231C127.593 90.0951 127.602 90.4207 127.872 90.6309C128.144 90.8426 128.463 90.7683 128.627 90.7121C128.819 90.6462 129.026 90.5273 129.239 90.3825L151.439 59.3762Z" stroke="#657ED4" stroke-opacity="0.37"/>
<path d="M16.399 80.6242C14.895 74.3096 15.2737 67.4562 17.535 60.0642C17.7483 59.3816 17.967 59.3816 18.191 60.0642C20.399 66.8642 20.703 74.8003 21.535 82.0483C21.839 84.7523 22.767 87.6162 23.999 90.0642C24.5324 91.1202 24.2977 91.3389 23.295 90.7202C12.959 84.3202 0.111006 77.3923 1.18301 63.1203C1.25767 62.1069 1.50834 62.0589 1.93501 62.9762C2.79901 64.8322 3.839 67.0082 5.279 68.4322C9.55633 72.6136 13.0977 76.7523 15.903 80.8483C16.4684 81.6803 16.6337 81.6056 16.399 80.6242Z" fill="#657ED4"/>
<path d="M5.62959 68.0757C9.60491 71.9619 12.9531 75.8171 15.6708 79.6417C14.4348 73.5331 14.9041 66.955 17.0569 59.918L17.0578 59.9151C17.1158 59.7295 17.1849 59.5529 17.2735 59.4129C17.3436 59.3021 17.5281 59.0522 17.859 59.0522C18.1872 59.0522 18.3726 59.2988 18.4435 59.4082C18.5336 59.5472 18.6052 59.7229 18.6661 59.9084L18.6666 59.9098C20.3901 65.2178 20.9668 71.2219 21.5215 76.9969C21.684 78.6891 21.8447 80.3616 22.0317 81.9912L22.0319 81.9924C22.3283 84.6288 23.236 87.4356 24.4453 89.8388L5.62959 68.0757ZM5.62959 68.0757C4.26523 66.726 3.26005 64.6379 2.38837 62.7654L5.62959 68.0757ZM23.0325 91.1457L23.0318 91.1453C22.4148 90.7633 21.7875 90.3786 21.1536 89.9899C16.5042 87.1389 11.4999 84.0702 7.60966 80.228C3.16682 75.84 0.134483 70.4042 0.684411 63.0828C0.703965 62.8178 0.736867 62.581 0.793961 62.3947C0.822268 62.3024 0.864754 62.1944 0.934386 62.0969C1.00525 61.9977 1.133 61.8715 1.33295 61.8332C1.53393 61.7947 1.70008 61.8656 1.80354 61.9334C1.90451 61.9997 1.98316 62.0859 2.04242 62.1619C2.16208 62.3155 2.2766 62.5251 2.3883 62.7652L23.0325 91.1457ZM23.0325 91.1457C23.2945 91.3074 23.5374 91.4345 23.7492 91.503M23.0325 91.1457L23.7492 91.503M23.7492 91.503C23.8549 91.5371 23.9795 91.5657 24.11 91.5629M23.7492 91.503L24.11 91.5629M24.11 91.5629C24.2448 91.5599 24.4186 91.5214 24.5639 91.386M24.11 91.5629L24.5639 91.386M24.5639 91.386C24.7086 91.2511 24.7593 91.0813 24.7726 90.9486M24.5639 91.386L24.7726 90.9486M24.7726 90.9486C24.7854 90.8196 24.7672 90.6935 24.7418 90.5852M24.7726 90.9486L24.7418 90.5852M24.7418 90.5852C24.691 90.3682 24.5848 90.1151 24.4456 89.8394L24.7418 90.5852Z" stroke="#657ED4" stroke-opacity="0.37"/>
<path d="M122.639 96.2883C126.687 93.4243 131.023 90.9123 135.583 88.8643C139.626 87.0509 142.959 84.0429 145.583 79.8403C145.658 79.7016 145.775 79.6216 145.935 79.6003C146.106 79.5683 146.261 79.6003 146.399 79.6963C146.485 79.7603 146.506 79.8403 146.463 79.9363C143.103 89.4403 136.815 96.0429 127.599 99.7443C123.423 101.424 119.215 101.088 114.911 102.512C113.386 103.014 113.135 102.646 114.159 101.408C117.103 97.8563 119.119 94.0643 120.207 90.0323C121.823 84.0483 124.671 78.6243 128.367 73.6963C128.964 72.8963 129.189 72.9869 129.039 73.9683C127.839 81.6003 127.231 89.5843 122.255 95.9043C121.487 96.8856 121.615 97.0136 122.639 96.2883Z" fill="#657ED4"/>
<path d="M123.468 95.1036C127.235 89.6573 128.189 83.1493 129.112 76.8491C129.25 75.9086 129.387 74.9729 129.533 74.0459L129.533 74.0435C129.573 73.7869 129.593 73.554 129.58 73.3645C129.573 73.271 129.557 73.1574 129.511 73.0475C129.465 72.9358 129.366 72.7796 129.171 72.7008C128.977 72.6225 128.799 72.6649 128.69 72.7104C128.581 72.7556 128.489 72.8235 128.418 72.8849C128.274 73.0092 128.123 73.1879 127.967 73.3969C124.239 78.3673 121.359 83.8476 119.724 89.9019L119.724 89.902C118.657 93.8578 116.677 97.5866 113.774 101.089L113.774 101.09C113.509 101.409 113.303 101.701 113.18 101.956C113.118 102.084 113.066 102.227 113.048 102.376C113.03 102.529 113.048 102.72 113.166 102.894C113.284 103.068 113.456 103.153 113.605 103.193C113.75 103.231 113.903 103.234 114.044 103.224C114.326 103.203 114.673 103.117 115.067 102.987L115.068 102.987C117.019 102.341 118.952 102.065 120.92 101.784C121.071 101.763 121.223 101.741 121.374 101.719C123.486 101.415 125.636 101.073 127.786 100.208L123.468 95.1036ZM123.468 95.1036C127.218 92.543 131.204 90.2828 135.378 88.4081L135.379 88.408C139.317 86.6417 142.575 83.7097 145.152 79.5869C145.304 79.3166 145.554 79.1506 145.856 79.1065C146.149 79.0547 146.435 79.1132 146.684 79.2852L146.692 79.2906L146.699 79.2963C146.805 79.3759 146.915 79.4992 146.962 79.6754C147.007 79.8422 146.979 79.9962 146.93 80.117C143.521 89.7465 137.133 96.4542 127.786 100.208L123.468 95.1036Z" stroke="#657ED4" stroke-opacity="0.37"/>
<path d="M30.751 97.7923C27.7003 94.6883 25.887 91.3976 25.311 87.9202C24.6497 83.8562 23.8177 79.7549 22.815 75.6162C22.4097 73.9202 22.751 73.7549 23.839 75.1202C27.487 79.6856 30.175 85.0136 31.903 91.1043C32.991 94.9443 35.023 98.6456 37.999 102.208C38.575 102.891 38.4363 103.11 37.583 102.864C35.3323 102.192 33.0017 101.723 30.591 101.456C19.167 100.208 10.319 93.0723 6.17502 82.3043C5.46035 80.4269 5.72702 80.2723 6.97502 81.8403C9.40702 84.8963 12.447 87.6643 15.983 89.3603C20.847 91.6856 25.7003 94.5763 30.543 98.0323C31.5457 98.7469 31.615 98.6669 30.751 97.7923Z" fill="#657ED4"/>
<path d="M24.2296 74.8081C27.9225 79.4296 30.6394 84.8185 32.384 90.9678L32.3841 90.968C33.45 94.7299 35.4441 98.3696 38.382 101.887C38.535 102.068 38.6653 102.247 38.7469 102.415C38.8097 102.545 38.9369 102.856 38.7492 103.152C38.5595 103.451 38.22 103.465 38.0756 103.461C37.8886 103.456 37.6722 103.41 37.4448 103.345L37.4399 103.343L37.44 103.343C35.2191 102.68 32.918 102.217 30.5363 101.953C18.9168 100.684 9.91595 93.4171 5.70838 82.4839L5.70773 82.4822C5.52679 82.0069 5.39884 81.6176 5.33474 81.3269C5.30351 81.1853 5.28039 81.0368 5.28535 80.9008C5.28887 80.8043 5.31213 80.5079 5.58815 80.3478C5.86664 80.1862 6.13652 80.3167 6.22227 80.3629C6.34233 80.4276 6.45845 80.5231 6.56413 80.6217C6.78116 80.8242 7.05026 81.1319 7.36623 81.5289L7.36625 81.5289C9.76661 84.5452 12.7505 87.2553 16.1989 88.9093C20.3147 90.877 24.4203 93.2458 28.5157 96.0147L24.2296 74.8081ZM24.2296 74.8081C24.2298 74.8083 24.2299 74.8085 24.23 74.8086L23.8394 75.12L24.2296 74.8081Z" stroke="#657ED4" stroke-opacity="0.37"/>
<path d="M107.487 105.024C113.023 104.502 118.548 103.883 124.063 103.168C128.175 102.64 131.487 100.608 134.543 97.9202C134.589 97.8846 134.646 97.8658 134.704 97.8669C134.763 97.8679 134.819 97.8888 134.863 97.9261C134.908 97.9634 134.939 98.0149 134.951 98.072C134.962 98.1291 134.954 98.1885 134.927 98.2403C128.879 108.032 117.759 112.496 106.543 109.44C103.674 108.662 100.554 107.968 97.1831 107.36C94.8471 106.934 94.7937 106.31 97.0231 105.488C105.071 102.528 110.863 94.9443 117.679 89.5043C118.447 88.8856 118.65 89.0402 118.287 89.9682C116.666 94.1282 114.591 97.9149 112.063 101.328C110.799 103.04 109.151 103.616 107.343 104.496C106.383 104.955 106.431 105.131 107.487 105.024Z" fill="#657ED4"/>
<path d="M118.753 90.1498C117.116 94.3488 115.021 98.1746 112.465 101.625C111.405 103.061 110.074 103.761 108.709 104.405L118.753 90.1498ZM118.753 90.1498C118.753 90.1499 118.753 90.1501 118.753 90.1502L118.287 89.9683L118.753 90.1498ZM106.543 109.44L106.412 109.923C106.412 109.923 106.412 109.923 106.412 109.923C103.558 109.148 100.453 108.458 97.0943 107.852L97.0932 107.852C96.4967 107.743 96.0101 107.616 95.6578 107.461C95.4822 107.384 95.3136 107.288 95.1794 107.165C95.0425 107.039 94.9135 106.856 94.8929 106.615C94.8723 106.374 94.9683 106.172 95.0816 106.024C95.1927 105.88 95.3425 105.757 95.5024 105.651C95.8231 105.438 96.2809 105.229 96.8502 105.019L96.8505 105.019C100.785 103.572 104.188 100.987 107.48 98.053C108.679 96.9853 109.869 95.8641 111.065 94.7376C113.127 92.7964 115.205 90.8395 117.366 89.1141L107.487 105.024C113.023 104.502 118.548 103.883 124.063 103.168C128.175 102.64 131.487 100.608 134.543 97.9202C134.589 97.8846 134.646 97.8658 134.704 97.8669C134.763 97.8679 134.819 97.8888 134.863 97.9261C134.908 97.9634 134.939 98.0149 134.951 98.072C134.962 98.1291 134.954 98.1885 134.927 98.2403C128.879 108.032 117.759 112.496 106.543 109.44ZM106.543 109.44C103.674 108.662 100.554 107.968 97.1831 107.36M106.543 109.44L97.1831 107.36M97.1831 107.36C94.8471 106.934 94.7937 106.31 97.0231 105.488C102.533 103.462 106.986 99.2676 111.434 95.0781C113.482 93.1484 115.53 91.2197 117.679 89.5043L97.1831 107.36Z" stroke="#657ED4" stroke-opacity="0.37"/>
<path d="M44.8313 104.88C38.6233 102.224 36.2233 95.8723 33.4393 90.3363C32.9486 89.3657 33.1459 89.195 34.0313 89.8243C37.5619 92.331 40.7939 95.195 43.7273 98.4163C47.5993 102.672 51.5513 104.544 56.8793 106.032C58.0953 106.384 58.1006 106.747 56.8953 107.12C42.7833 111.504 28.3353 114.08 18.1913 100.72C16.6659 98.7043 16.8953 98.4803 18.8793 100.048C21.3113 101.979 23.8499 103.152 26.4953 103.568C31.8393 104.4 37.9033 105.024 44.6873 105.44C45.8286 105.515 45.8766 105.328 44.8313 104.88Z" fill="#657ED4"/>
<path d="M37.434 98.9637C39.0061 101.346 40.949 103.466 43.6497 104.874C37.3083 104.46 31.6164 103.86 26.5727 103.074C24.0255 102.674 21.5653 101.542 19.1901 99.6567L19.1893 99.6561C18.6893 99.2609 18.2835 98.9654 17.9798 98.781C17.8314 98.6909 17.683 98.612 17.5465 98.5663C17.4792 98.5437 17.3866 98.5193 17.2828 98.5193C17.177 98.5193 17.0096 98.5462 16.8699 98.6826C16.7301 98.8192 16.6993 98.9861 16.6969 99.0922C16.6946 99.1961 16.717 99.2893 16.7381 99.357C16.781 99.4945 16.8566 99.6446 16.9435 99.7947C17.1214 100.102 17.4081 100.514 17.7925 101.022L17.793 101.023C22.9585 107.826 29.2431 110.585 36.0194 111.073C42.7636 111.558 49.9808 109.792 57.0436 107.598C57.3585 107.5 57.6307 107.393 57.8337 107.269C57.9984 107.168 58.3008 106.944 58.2952 106.561C58.2896 106.18 57.9835 105.964 57.8168 105.867C57.6109 105.746 57.3361 105.644 57.0183 105.552L57.0137 105.551C51.7431 104.079 47.8861 102.245 44.0971 98.0798L44.097 98.0797C41.1397 94.832 37.8808 91.9441 34.3207 89.4166C34.0903 89.2528 33.877 89.1206 33.6913 89.0419C33.5996 89.0031 33.4867 88.965 33.3651 88.9554C33.2422 88.9456 33.0542 88.962 32.8922 89.1021C32.7304 89.242 32.687 89.4253 32.6787 89.5477C32.6704 89.6692 32.6912 89.7863 32.716 89.8828C32.7662 90.0782 32.8652 90.3089 32.9928 90.5614C33.3261 91.2241 33.6562 91.9039 33.9899 92.5911C35.0329 94.739 36.1116 96.9602 37.434 98.9637Z" stroke="#657ED4" stroke-opacity="0.37"/>
<path d="M70.751 108.864C66.8576 109.536 63.2523 111.104 59.935 113.568C49.9296 121.003 40.447 120.859 31.487 113.136C30.0043 111.856 30.175 111.563 31.999 112.256C39.119 114.976 45.5029 114.096 52.0789 110.848C59.1189 107.36 66.207 106.102 73.343 107.072C75.487 107.371 77.6843 107.27 79.935 106.768C87.919 105.008 95.247 108.416 102.495 111.568C107.887 113.92 114.863 113.648 120.319 111.456C122.698 110.507 122.927 110.88 121.007 112.576C114.671 118.176 107.46 119.76 99.3749 117.328C92.8949 115.36 88.143 108.672 81.151 108.704C80.1376 108.704 80.079 108.939 80.975 109.408C85.903 111.958 90.575 115.334 94.991 119.536C95.7483 120.251 95.7536 120.976 95.007 121.712L94.639 122.064C93.839 122.843 93.0123 122.875 92.159 122.16L79.2309 111.168C78.6518 110.675 77.9413 110.362 77.1876 110.268C76.4339 110.174 75.6701 110.303 74.991 110.64C69.183 113.488 64.703 117.76 60.303 122.416C59.6096 123.152 58.8683 123.2 58.0789 122.56L56.735 121.488C56.1483 121.019 56.1323 120.528 56.687 120.016C60.9963 116.059 65.791 112.646 71.071 109.776C72.799 108.838 72.6923 108.534 70.751 108.864Z" fill="#657ED4"/>
<path d="M31.1605 113.515L31.1602 113.515C30.7839 113.19 30.4917 112.91 30.301 112.681C30.2077 112.57 30.1181 112.446 30.0604 112.317C30.0121 112.21 29.9233 111.958 30.0708 111.705C30.2199 111.449 30.4856 111.404 30.6046 111.394C30.7457 111.383 30.8973 111.403 31.0393 111.431C31.3301 111.489 31.7137 111.613 32.1766 111.789L32.1774 111.789C39.1417 114.45 45.3794 113.6 51.8573 110.4C51.8574 110.4 51.8574 110.4 51.8575 110.4L52.0789 110.848L31.1605 113.515ZM31.1605 113.515C35.7067 117.433 40.4261 119.462 45.3114 119.536C50.1929 119.61 55.1699 117.732 60.2331 113.97C63.4735 111.563 66.9866 110.031 70.7763 109.367M31.1605 113.515L70.7763 109.367M99.2309 117.807L99.2296 117.807C96.4471 116.962 93.9701 115.268 91.582 113.635C91.111 113.312 90.6434 112.993 90.1777 112.682C87.4653 110.875 84.789 109.36 81.6844 109.215C86.4814 111.757 91.0313 115.078 95.3348 119.173M99.2309 117.807L94.991 119.536M99.2309 117.807C107.482 120.289 114.873 118.665 121.338 112.951L99.2309 117.807ZM95.3348 119.173C95.3351 119.174 95.3354 119.174 95.3357 119.174L94.991 119.536M95.3348 119.173C95.3345 119.173 95.3343 119.173 95.3341 119.173L94.991 119.536M95.3348 119.173C95.7685 119.583 96.0589 120.064 96.063 120.613C96.067 121.161 95.7844 121.648 95.358 122.068L95.3526 122.074L94.9877 122.423L94.639 122.064M94.991 119.536C95.7483 120.251 95.7536 120.976 95.007 121.712L94.639 122.064M94.639 122.064L94.9845 122.426L94.9861 122.424M94.639 122.064C93.839 122.843 93.0123 122.875 92.159 122.16L79.2309 111.168C78.6518 110.675 77.9413 110.362 77.1876 110.268C76.4339 110.174 75.6701 110.303 74.991 110.64C69.183 113.488 64.703 117.76 60.303 122.416C59.6096 123.152 58.8683 123.2 58.0789 122.56L56.735 121.488C56.1483 121.019 56.1323 120.528 56.687 120.016C60.9963 116.059 65.791 112.646 71.071 109.776C71.462 109.564 71.7591 109.384 71.9622 109.237L94.9861 122.424M94.9861 122.424C94.5293 122.868 94.0121 123.15 93.4383 123.172C92.8635 123.194 92.3264 122.953 91.8379 122.544L91.8351 122.541L78.9071 111.549L78.9067 111.549C78.4016 111.118 77.7824 110.846 77.1258 110.764C76.4692 110.682 75.8042 110.795 75.2131 111.088L75.2111 111.089C69.4881 113.896 65.0592 118.111 60.6664 122.76C60.2648 123.186 59.7957 123.468 59.2593 123.503C58.7237 123.538 58.2212 123.319 57.7656 122.95C57.7651 122.95 57.7646 122.949 57.764 122.949L56.4232 121.879L56.4226 121.879C56.076 121.601 55.798 121.239 55.7832 120.785C55.7684 120.331 56.0212 119.95 56.3478 119.649L56.3488 119.648C60.6738 115.676 65.4834 112.249 70.7763 109.367M94.9861 122.424L70.7763 109.367M102.495 111.568C107.887 113.92 114.863 113.648 120.319 111.456L73.343 107.072C75.487 107.371 77.6843 107.27 79.935 106.768C87.6079 105.077 94.675 108.159 101.647 111.199C101.93 111.322 102.213 111.445 102.495 111.568Z" stroke="#657ED4" stroke-opacity="0.37"/>
</svg>
